<?xml version="1.0" standalone="no"?>
<!DOCTYPE svg PUBLIC "-//W3C//DTD SVG 20010904//EN"
 "http://www.w3.org/TR/2001/REC-SVG-20010904/DTD/svg10.dtd">
<svg version="1.0" xmlns="http://www.w3.org/2000/svg"
 width="2000.000000pt" height="2000.000000pt" viewBox="0 0 2000.000000 2000.000000"
 preserveAspectRatio="xMidYMid meet">

<g transform="translate(0.000000,2000.000000) scale(0.100000,-0.100000)"
fill="#000000" stroke="none">
<path d="M11589 17648 c0 -7 0 -74 0 -148 l2 -135 -111 -79 c-63 -46 -110 -87
-110 -96 0 -13 32 -26 135 -55 l135 -39 43 -130 c34 -103 48 -131 62 -131 11
0 45 40 94 110 l77 110 139 3 c77 1 143 6 148 11 5 5 -27 55 -70 112 -43 57
-82 110 -86 116 -5 7 11 72 33 144 28 89 38 135 31 142 -7 7 -52 -5 -140 -37
-78 -28 -136 -44 -144 -39 -7 4 -58 41 -114 81 -101 72 -122 83 -124 60z m145
-123 c48 -36 93 -65 100 -65 7 0 60 17 119 39 58 21 108 37 110 34 3 -2 -11
-51 -29 -108 -19 -58 -34 -112 -34 -121 0 -9 32 -56 71 -106 39 -49 68 -92 65
-96 -4 -3 -53 -5 -111 -3 -57 1 -112 -2 -122 -7 -10 -6 -47 -53 -83 -106 -35
-52 -66 -93 -70 -90 -3 3 -21 56 -41 117 l-35 112 -117 35 c-64 19 -117 37
-117 41 0 4 43 37 95 75 l96 69 -3 123 c-2 79 1 122 7 122 6 0 50 -29 99 -65z"/>
<path d="M9436 17329 c-154 -5 -284 -13 -289 -18 -12 -12 404 -696 423 -696
16 0 390 679 390 707 0 21 -32 21 -524 7z m474 -32 c0 -2 -19 -37 -42 -78 -24
-42 -99 -179 -168 -307 -69 -127 -128 -232 -131 -232 -3 0 -26 35 -51 78 -26
42 -107 176 -182 297 -74 121 -133 221 -131 224 7 6 705 24 705 18z"/>
<path d="M10845 17074 c-61 -53 -157 -137 -215 -186 -103 -89 -130 -116 -130
-128 0 -3 42 -53 93 -111 50 -58 139 -160 197 -227 58 -67 111 -122 117 -122
11 0 36 20 109 85 6 6 88 77 183 159 94 82 171 155 171 162 0 17 -389 464
-404 464 -6 0 -61 -43 -121 -96z m296 -154 c96 -110 175 -204 177 -208 1 -5
-57 -60 -129 -123 -73 -63 -137 -119 -143 -124 -74 -68 -138 -117 -145 -109
-4 5 -85 98 -181 208 l-173 199 39 32 c21 18 113 98 204 178 91 80 168 146
171 146 3 1 84 -89 180 -199z"/>
<path d="M8148 16998 c-90 -79 -192 -167 -226 -196 -34 -30 -62 -58 -62 -64 0
-20 393 -458 410 -458 23 0 454 376 458 398 3 21 -382 462 -403 462 -8 0 -88
-64 -177 -142z"/>
<path d="M12578 16854 c-239 -57 -384 -294 -323 -527 21 -83 50 -133 112 -198
182 -192 496 -173 655 40 131 173 114 416 -38 569 -60 59 -149 106 -233 122
-68 13 -102 12 -173 -6z"/>
<path d="M11630 16459 c-146 -77 -302 -159 -347 -182 -51 -25 -83 -48 -83 -57
0 -10 73 -62 188 -135 103 -65 254 -161 335 -212 82 -52 155 -92 163 -89 10 4
14 23 14 63 0 32 7 210 15 396 8 187 13 343 9 348 -3 5 -11 9 -17 9 -7 0 -131
-64 -277 -141z m254 14 c-2 -38 -9 -194 -15 -348 -6 -154 -12 -281 -14 -283
-1 -2 -136 81 -299 184 -163 103 -293 191 -289 195 4 4 114 62 243 130 129 67
262 137 295 156 33 18 65 33 71 33 8 0 10 -22 8 -67z"/>
<path d="M9497 16320 c-111 -19 -226 -95 -287 -191 -143 -221 -59 -517 178
-631 57 -27 81 -33 158 -36 144 -7 248 33 343 131 201 207 139 559 -122 686
-94 47 -168 58 -270 41z m237 -68 c307 -144 313 -569 11 -718 -55 -27 -69 -29
-170 -29 -98 0 -116 3 -167 27 -202 94 -287 335 -189 532 97 195 324 277 515
188z"/>
<path d="M8318 16053 l-63 -128 -140 -22 c-77 -12 -141 -22 -142 -22 -15 -5
10 -40 70 -98 39 -39 84 -84 99 -100 l28 -29 -24 -131 c-13 -77 -20 -137 -15
-145 7 -10 38 2 136 54 l128 66 123 -65 c92 -49 126 -63 135 -54 8 8 5 46 -11
149 l-23 137 101 93 c83 78 114 117 98 123 -2 0 -66 10 -143 22 l-140 22 -65
124 c-36 69 -70 127 -77 129 -7 2 -38 -49 -75 -125z m199 -161 c10 -5 59 -15
108 -22 141 -20 139 -14 39 -109 l-88 -84 21 -121 c11 -67 19 -122 18 -124 -1
-1 -51 23 -111 55 l-108 57 -110 -57 c-60 -32 -110 -56 -111 -55 -2 2 6 56 17
122 l20 118 -88 89 c-59 59 -83 90 -73 93 8 2 57 10 109 17 52 6 103 16 113
21 9 5 40 57 69 115 l51 107 53 -107 c30 -58 62 -110 71 -115z"/>
<path d="M12340 15504 c-124 -101 -260 -213 -302 -247 -42 -34 -77 -68 -78
-75 0 -19 -4 -17 555 -227 33 -13 90 -34 126 -48 36 -14 71 -22 78 -18 13 9
17 -17 -55 421 -61 374 -62 380 -82 380 -9 -1 -118 -84 -242 -186z"/>
<path d="M11249 15557 c-306 -104 -397 -474 -176 -714 164 -178 458 -176 628
4 158 167 159 426 1 595 -116 124 -294 169 -453 115z m294 -50 c112 -51 184
-132 222 -246 28 -85 18 -208 -24 -289 -42 -83 -106 -146 -189 -185 -61 -29
-75 -32 -167 -32 -88 0 -107 3 -158 27 -248 116 -314 432 -131 629 90 95 175
130 304 126 67 -2 98 -9 143 -30z"/>
<path d="M9985 15357 c-3 -7 -4 -147 -3 -312 l3 -300 310 0 310 0 3 313 2 312
-310 0 c-241 0 -312 -3 -315 -13z m585 -302 l0 -275 -275 0 -275 0 0 275 0
275 275 0 275 0 0 -275z"/>
<path d="M8916 15052 c-3 -5 -10 -141 -16 -303 -5 -162 -12 -340 -16 -396 -7
-122 0 -130 74 -91 26 14 153 81 282 148 313 164 364 193 368 210 1 9 -22 30
-55 51 -279 177 -607 381 -618 385 -7 3 -16 1 -19 -4z"/>
<path d="M8194 14638 c-71 -62 -175 -153 -231 -202 -57 -48 -103 -92 -103 -97
0 -5 88 -110 196 -234 127 -145 204 -225 216 -225 10 0 40 20 66 43 26 24 124
111 217 192 104 90 170 155 170 166 0 16 -313 386 -378 447 l-24 23 -129 -113z
m329 -167 c87 -100 157 -185 155 -189 -3 -9 -157 -148 -278 -251 -41 -36 -87
-75 -101 -88 l-26 -24 -182 207 c-176 200 -182 208 -164 225 10 10 104 92 208
183 l190 166 20 -24 c11 -13 91 -105 178 -205z"/>
<path d="M11429 14314 c-123 -107 -225 -204 -227 -214 -2 -12 25 -51 75 -107
43 -48 130 -148 192 -220 73 -86 121 -133 133 -133 11 0 61 37 112 83 51 45
149 132 219 192 70 61 127 117 127 126 0 15 -369 446 -395 461 -7 5 -95 -65
-236 -188z m293 69 c29 -34 106 -123 171 -198 65 -74 117 -139 115 -144 -3 -8
-128 -121 -223 -201 -28 -24 -100 -87 -156 -137 l-26 -24 -174 201 c-96 111
-174 207 -174 214 0 8 54 61 119 117 66 57 154 134 195 171 42 38 82 67 88 65
7 -1 36 -30 65 -64z"/>
<path d="M10512 14353 c-10 -16 -41 -74 -67 -130 -27 -57 -51 -103 -54 -103
-47 -2 -267 -42 -275 -50 -7 -7 19 -39 91 -113 l101 -102 -23 -135 c-12 -74
-21 -138 -18 -142 8 -15 29 -8 147 53 l120 62 116 -62 c65 -33 125 -61 134
-61 21 0 20 10 -5 161 l-21 125 103 102 c77 74 101 104 93 112 -9 9 -230 48
-277 50 -4 0 -35 56 -67 124 -32 68 -63 127 -69 130 -5 4 -18 -6 -29 -21z"/>
<path d="M9530 13782 c-382 -202 -360 -189 -360 -206 0 -7 138 -100 306 -207
394 -249 371 -236 382 -224 5 6 15 156 22 335 18 474 18 474 0 477 -8 1 -166
-77 -350 -175z m326 56 c-3 -35 -8 -135 -11 -223 -7 -219 -17 -409 -20 -413
-3 -3 -571 352 -588 368 -5 4 96 63 225 130 128 67 265 140 303 161 96 52 98
52 91 -23z"/>
<path d="M10576 13180 c-64 -72 -95 -100 -112 -100 -13 0 -76 7 -140 15 -75
10 -121 12 -127 6 -6 -6 17 -55 62 -134 l71 -125 -55 -117 c-30 -65 -55 -126
-55 -136 0 -25 10 -24 159 10 l125 29 55 -54 56 -54 -204 3 -204 2 -13 62
c-61 301 -409 440 -668 268 -95 -63 -170 -180 -183 -285 l-6 -49 -46 -3 -46
-3 4 -130 c2 -71 11 -241 20 -378 9 -136 14 -247 11 -247 -3 1 -16 7 -30 15
-62 35 -129 4 -169 -78 -62 -127 24 -346 217 -558 l51 -56 21 -128 c27 -159
51 -241 96 -322 37 -67 132 -192 197 -260 l40 -41 -8 -114 c-4 -63 -10 -139
-13 -168 l-7 -53 -59 73 c-58 71 -60 73 -76 53 -9 -11 -61 -126 -115 -255
l-100 -235 -150 -43 c-203 -58 -780 -249 -886 -294 -161 -69 -188 -90 -238
-186 -41 -81 -654 -1208 -674 -1241 -9 -14 -16 -13 -59 14 -29 18 -63 31 -81
31 -57 -1 -407 -181 -407 -210 0 -18 3 -18 -66 12 -432 191 -1862 780 -2114
870 -52 19 -107 39 -122 45 l-27 11 0 526 c-1 289 -5 530 -9 534 -4 4 -793 7
-1753 6 l-1744 -3 0 -950 0 -950 1231 -3 1232 -2 -5 -63 c-3 -34 0 -80 6 -102
l11 -40 -73 -70 c-52 -51 -100 -85 -172 -123 -55 -28 -108 -58 -118 -66 -31
-24 -18 -58 33 -84 37 -19 55 -22 99 -17 29 3 62 10 72 16 12 6 19 6 19 0 0
-12 -59 -60 -155 -126 -95 -65 -125 -95 -125 -122 0 -30 33 -46 100 -47 64 -1
132 22 209 71 29 19 55 32 57 30 3 -2 -22 -45 -55 -94 -32 -49 -68 -108 -80
-131 -25 -50 -28 -107 -5 -116 82 -31 206 63 341 262 52 75 58 81 65 61 6 -15
2 -42 -13 -83 -27 -77 -37 -235 -19 -314 16 -75 70 -187 114 -239 20 -22 36
-44 36 -47 0 -3 -323 -7 -717 -8 l-718 -3 -3 -92 -3 -93 -582 -2 c-541 -1
-726 -3 -769 -7 -17 -1 -18 -44 -18 -746 l0 -745 682 -2 683 -3 5 -105 5 -105
1750 0 1750 0 0 950 0 950 -633 3 -633 2 35 41 c82 96 136 242 136 371 0 94
-16 160 -61 256 -47 97 -53 60 56 347 100 264 109 300 95 376 -6 34 -24 97
-39 141 -19 52 -24 78 -16 74 7 -2 147 -112 312 -243 705 -564 1132 -870 1412
-1012 238 -120 728 -339 900 -401 54 -20 69 -22 105 -13 22 6 55 9 72 6 57 -9
164 59 329 210 126 115 256 257 283 310 l23 44 -21 59 c-12 32 -23 68 -23 79
-1 12 62 102 158 227 88 114 161 206 162 204 2 -1 21 -155 43 -342 57 -491
139 -1188 148 -1267 l8 -67 -58 -118 c-74 -149 -109 -256 -115 -357 -4 -61 -2
-89 11 -119 30 -72 104 -163 176 -217 39 -28 70 -55 70 -58 0 -11 -51 -195
-55 -199 -8 -9 -717 367 -909 482 -39 24 -123 73 -186 111 -63 38 -214 131
-335 208 -241 154 -372 221 -510 263 -77 23 -109 27 -220 28 -144 1 -215 -16
-325 -77 -125 -68 -204 -148 -270 -269 -67 -125 -85 -208 -85 -388 1 -117 5
-171 19 -220 77 -283 196 -417 540 -615 55 -31 167 -109 250 -174 401 -312
783 -586 1065 -763 69 -43 121 -78 115 -78 -5 -1 -93 0 -197 0 -204 1 -226 5
-458 89 -124 44 -212 57 -303 44 -84 -12 -184 -55 -238 -102 l-36 -31 -1385 0
c-762 0 -1393 -3 -1401 -6 -9 -3 -16 -12 -16 -20 0 -12 207 -14 1380 -14 759
0 1380 -3 1380 -6 0 -3 -15 -38 -34 -77 -63 -132 -85 -336 -50 -471 79 -307
399 -477 849 -451 202 12 699 102 755 137 12 8 75 2 226 -21 115 -18 252 -35
305 -38 l96 -6 81 72 c45 40 82 76 82 81 0 24 60 41 250 75 113 20 311 59 440
86 l235 51 90 -12 c50 -6 206 -14 347 -17 265 -6 375 0 681 38 l159 19 57 -30
c31 -17 84 -52 117 -79 104 -85 168 -107 329 -118 77 -5 115 -13 167 -34 167
-71 412 -150 584 -188 220 -48 437 -52 584 -11 211 60 363 212 415 415 20 78
20 262 0 340 -19 74 -69 176 -101 206 -13 12 -24 26 -24 31 0 4 1182 8 2626 8
2495 0 2625 1 2622 18 -3 16 -139 17 -2657 20 -1908 1 -2658 5 -2667 13 -8 6
-39 21 -69 34 l-56 22 83 58 c182 127 409 334 568 518 19 21 86 78 149 127
201 154 331 299 407 455 53 110 74 194 74 301 0 114 -14 177 -60 271 -65 133
-197 233 -365 279 -90 25 -344 30 -475 10 -251 -37 -524 -135 -850 -304 -301
-156 -722 -363 -728 -358 -2 3 -13 65 -23 138 l-20 134 46 79 c72 127 90 196
90 350 -1 119 -6 155 -63 431 l-62 300 -6 490 -7 489 71 215 c39 118 114 349
167 512 53 164 100 300 104 303 5 2 307 5 673 5 l664 1 50 -49 c76 -73 125
-87 304 -87 124 0 156 4 220 24 41 13 88 30 103 38 42 21 185 150 210 189 26
39 39 43 37 12 -1 -13 -2 -105 -1 -206 l1 -182 1753 2 1752 3 5 102 5 102 672
3 c455 2 675 6 683 14 7 7 9 239 8 745 l-3 734 -680 5 -680 5 -5 95 -5 95
-1514 3 c-1203 2 -1512 5 -1508 15 4 11 162 569 258 907 22 80 45 159 50 177
l10 31 60 -58 c32 -32 138 -127 234 -211 l175 -154 0 -267 c0 -254 1 -268 19
-278 24 -12 845 -9 858 3 7 8 12 184 13 515 0 104 1 112 20 112 10 0 29 10 40
23 29 30 24 64 -34 210 -25 65 -46 122 -46 126 0 4 46 -16 103 -45 107 -55
255 -104 312 -104 96 0 136 58 78 112 -25 23 -63 46 -215 132 -27 15 -48 28
-48 29 0 1 48 2 108 2 117 0 176 18 227 69 56 56 22 79 -149 101 -71 10 -145
23 -165 30 l-36 12 60 17 c101 30 172 125 116 156 -11 5 -77 10 -148 10 -128
0 -226 16 -281 44 -21 11 -33 29 -46 71 -22 72 -63 118 -118 134 -24 7 -131
56 -238 108 -529 258 -635 303 -722 303 -121 0 -324 -162 -399 -318 -16 -35
-40 -80 -53 -100 -24 -38 -51 -89 -181 -332 -72 -134 -695 -1374 -695 -1383 0
-2 -52 -110 -115 -240 l-114 -236 -35 14 c-78 33 -251 13 -356 -40 -46 -23
-50 -28 -50 -60 0 -26 -4 -35 -17 -35 -41 0 -837 184 -988 229 -55 16 -127 39
-160 51 -33 12 -112 33 -177 46 -216 45 -309 54 -579 54 l-256 0 -13 28 c-7
15 -48 110 -92 212 -43 102 -85 191 -92 199 -12 11 -26 -3 -91 -83 -43 -53
-80 -95 -82 -93 -6 7 -62 289 -63 316 0 14 22 50 54 90 142 175 237 337 255
436 5 28 15 104 21 170 l12 120 47 50 c190 202 282 435 220 562 -51 105 -130
121 -212 44 -16 -14 -26 -19 -23 -11 5 15 10 157 22 563 l7 227 -227 0 c-212
0 -227 1 -222 18 2 9 8 54 11 100 8 95 -3 83 168 176 48 26 87 53 87 60 0 8
-57 39 -129 71 l-129 57 -27 139 c-22 111 -31 139 -44 139 -9 0 -56 -45 -105
-100z m102 -17 c6 -27 16 -77 22 -113 7 -36 18 -70 24 -76 6 -6 57 -31 113
-54 56 -24 100 -47 98 -51 -3 -4 -49 -31 -103 -59 -53 -29 -100 -57 -103 -62
-4 -6 -10 -51 -13 -102 -8 -101 -13 -126 -27 -126 -5 0 -46 34 -90 75 -45 41
-85 75 -88 75 -4 0 -56 -11 -116 -25 -60 -13 -111 -22 -114 -20 -2 3 15 47 38
98 24 50 45 101 48 112 3 13 -18 58 -56 123 l-60 102 27 0 c15 -1 70 -7 122
-14 l95 -14 63 66 c35 37 70 77 79 90 22 32 30 28 41 -25z m-748 -305 c115
-52 206 -169 229 -290 l8 -48 -395 0 -395 0 5 44 c15 132 132 267 271 312 68
22 210 13 277 -18z m1221 -382 c14 -15 -49 -1332 -76 -1568 -21 -180 -46 -235
-201 -443 -159 -213 -323 -367 -462 -433 -65 -31 -79 -34 -129 -29 -130 14
-356 160 -547 354 -164 168 -261 309 -292 425 -49 185 -100 648 -138 1268 -9
135 -18 287 -22 338 l-6 92 934 0 c514 0 937 -2 939 -4z m4386 -512 c92 -35
189 -80 538 -249 88 -43 196 -93 240 -110 122 -49 136 -84 155 -378 13 -192
30 -305 63 -405 13 -40 21 -74 18 -76 -3 -2 -22 -2 -41 -1 -19 1 -55 3 -80 4
l-45 1 -62 118 c-65 125 -97 214 -134 381 -31 136 -32 136 -199 136 -176 0
-241 -23 -327 -111 -101 -104 -129 -222 -79 -329 13 -27 76 -117 140 -200 157
-202 196 -268 196 -329 0 -57 -14 -86 -41 -86 -33 0 -58 18 -159 109 -52 47
-149 133 -215 190 -200 174 -243 219 -266 280 -34 91 -66 353 -82 661 -2 35
-6 46 -21 48 -18 4 -19 -2 -12 -124 9 -175 34 -414 52 -499 22 -109 42 -21
-202 -885 -52 -184 -100 -350 -105 -367 l-10 -33 -217 -2 -217 -3 -5 -705 -5
-705 -29 -45 c-35 -55 -96 -130 -105 -130 -3 0 -14 41 -24 92 -32 166 -165
584 -292 918 -37 96 -74 195 -82 220 l-15 46 77 159 c43 88 107 221 142 295
311 647 813 1628 920 1798 18 29 31 57 29 61 -3 4 19 37 48 72 121 146 225
219 314 219 25 0 83 -15 139 -36z m-6282 -246 l35 -33 25 -258 c14 -142 25
-261 25 -265 0 -14 -65 58 -110 125 -73 105 -121 211 -127 282 -7 76 0 102 38
146 39 44 69 45 114 3z m2084 -3 c38 -44 45 -70 38 -146 -8 -95 -91 -251 -196
-373 -22 -25 -41 -41 -43 -35 -2 6 0 54 3 107 4 53 10 158 14 232 7 147 16
174 76 225 42 35 71 32 108 -10z m5256 -355 c58 -15 111 -20 207 -20 71 0 128
-4 128 -9 0 -5 -13 -23 -29 -39 -33 -33 -95 -52 -167 -52 -47 0 -78 19 -214
127 -20 17 -15 16 75 -7z m-503 -16 c36 -6 37 -6 53 -83 35 -162 71 -268 131
-387 l62 -123 -261 -3 c-144 -2 -272 -2 -285 0 -26 4 -139 141 -172 208 -73
148 51 346 240 383 54 11 181 13 232 5z m534 -107 c99 -71 169 -96 324 -117
78 -10 145 -22 148 -25 12 -12 -39 -45 -96 -61 -68 -20 -272 -12 -310 13 -23
14 -182 247 -182 266 0 5 15 -2 33 -15 17 -14 55 -41 83 -61z m-55 -97 c64
-101 120 -151 245 -219 207 -114 251 -149 208 -165 -63 -24 -206 20 -401 122
l-81 43 -11 67 c-14 89 -24 232 -17 232 3 0 28 -36 57 -80z m-36 -453 c3 -12
4 -193 3 -402 l-3 -380 -400 0 -400 0 -3 228 c-1 129 1 227 7 227 5 0 14 -7
22 -16 20 -24 85 -54 116 -54 55 1 83 43 84 123 1 63 -15 99 -95 210 -31 43
-56 80 -56 82 0 2 162 4 360 4 l360 0 5 -22z m71 -61 c19 -60 14 -86 -16 -86
-18 0 -20 6 -20 76 0 86 11 89 36 10z m-6735 -593 c248 -294 376 -404 452
-389 76 15 244 168 382 345 39 49 73 90 76 91 3 0 13 -41 22 -90 l18 -91 -173
-220 c-95 -122 -194 -248 -220 -281 -27 -32 -48 -66 -48 -74 0 -7 28 -70 62
-138 l62 -124 -80 -98 c-44 -54 -85 -99 -90 -100 -5 -2 -29 21 -54 51 -25 29
-76 88 -115 130 l-69 77 47 92 c26 51 47 100 47 110 0 9 -93 135 -207 279
-113 144 -220 279 -236 300 -22 28 -30 49 -29 75 1 56 14 212 17 212 1 0 62
-71 136 -157z m-244 -40 c34 -43 165 -210 292 -372 127 -161 231 -296 231
-300 0 -13 -389 -756 -397 -758 -9 -3 -33 64 -170 462 -30 88 -70 203 -88 255
-18 52 -54 155 -80 228 l-46 134 93 214 c51 118 95 214 98 214 4 0 34 -35 67
-77z m1481 -137 l92 -214 -84 -244 c-162 -470 -275 -793 -286 -822 l-11 -30
-15 30 c-9 16 -92 178 -186 359 -94 182 -177 340 -184 352 -8 12 -14 26 -14
31 0 6 62 88 138 184 75 96 207 263 292 371 85 108 158 197 161 197 3 0 47
-96 97 -214z m-10018 -1101 l0 -915 -30 0 -30 0 0 915 0 915 30 0 30 0 0 -915z
m3375 405 c0 -444 -2 -504 -15 -500 -8 2 -68 6 -133 8 -204 6 -198 13 -680
-652 l-128 -176 -1189 0 -1190 0 0 915 0 915 1668 -2 1667 -3 0 -505z m13325
-405 l0 -915 -1670 0 -1670 0 0 915 0 915 1670 0 1670 0 0 -915z m100 0 l0
-915 -30 0 -30 0 0 915 0 915 30 0 30 0 0 -915z m-6022 875 c143 -21 354 -70
399 -94 62 -31 287 -87 998 -245 66 -15 119 -31 118 -37 0 -5 -9 -100 -18
-212 -12 -145 -16 -262 -12 -410 5 -233 20 -316 81 -447 19 -40 32 -76 29 -79
-3 -3 -283 -6 -622 -6 -529 0 -613 2 -596 14 11 7 130 81 265 163 377 230 400
245 400 259 0 28 -30 18 -130 -44 -218 -135 -522 -320 -573 -349 -11 -6 3 21
180 350 80 149 175 325 209 390 35 66 62 123 58 128 -15 26 -39 -3 -105 -128
-40 -76 -120 -226 -178 -333 -58 -107 -115 -212 -126 -232 -10 -21 -21 -35
-24 -33 -2 3 6 40 17 82 12 43 47 170 77 283 30 113 65 240 76 283 17 59 19
81 11 89 -8 8 -15 9 -22 2 -6 -6 -65 -213 -131 -460 -115 -432 -169 -609 -376
-1239 l-96 -290 7 -498 6 -498 61 -302 c70 -344 80 -447 55 -559 -17 -75 -60
-177 -97 -229 l-20 -29 -1483 0 -1483 0 -67 51 c-72 55 -147 147 -167 206 -28
87 13 256 111 449 37 72 58 125 55 138 -3 12 -36 296 -75 631 -137 1190 -113
1038 -245 1550 -65 248 -120 460 -122 473 -5 23 -27 30 -38 12 -3 -5 37 -177
90 -381 53 -204 94 -373 91 -376 -2 -3 -18 21 -34 53 -17 33 -53 99 -81 147
-28 49 -51 91 -51 93 0 2 -10 21 -23 42 -13 20 -48 82 -77 137 -90 170 -112
197 -126 162 -2 -7 88 -179 201 -382 113 -202 203 -370 201 -372 -2 -2 -117
60 -255 137 -139 77 -257 138 -262 135 -27 -17 13 -46 249 -175 338 -187 307
-166 285 -195 -72 -95 -188 -244 -247 -319 -65 -82 -71 -87 -84 -70 -7 10 -38
57 -69 104 -140 213 -299 379 -525 544 -82 60 -148 113 -148 118 0 11 55 115
342 638 112 206 235 434 273 505 110 208 104 201 208 250 89 41 369 147 472
178 28 8 158 49 290 90 262 81 343 103 349 96 3 -4 92 -259 295 -849 60 -172
93 -256 104 -258 17 -4 33 22 170 288 53 102 111 213 130 248 l34 64 122 -136
c67 -75 130 -136 139 -136 15 1 161 173 170 200 2 6 7 10 12 10 5 0 70 -120
146 -266 75 -146 144 -268 152 -271 7 -3 18 0 22 7 8 13 136 379 327 932 l78
228 245 0 c191 0 274 -4 378 -20z m1872 -210 c30 -6 62 -18 72 -26 19 -18 82
-174 176 -439 144 -407 242 -740 242 -826 0 -41 -4 -51 -34 -77 -72 -63 -217
-97 -390 -90 -174 7 -244 51 -317 199 -85 172 -104 292 -96 614 5 217 31 526
47 570 12 30 132 73 236 84 6 0 35 -4 64 -9z m5518 -802 l2 -558 -665 0 -665
0 0 553 c0 305 3 557 7 560 3 4 302 6 662 5 l656 -3 3 -557z m-14894 7 c42 -8
116 -30 163 -50 48 -19 99 -35 114 -35 32 0 588 -219 1029 -405 69 -29 267
-112 440 -185 936 -393 940 -395 993 -453 124 -134 294 -439 372 -667 43 -124
91 -317 101 -400 6 -54 4 -60 -19 -84 -43 -42 -56 -39 -367 94 -567 243 -765
347 -1085 570 -256 178 -538 393 -1030 785 -132 105 -256 201 -275 213 -27 16
-42 36 -60 79 -54 134 -144 313 -156 313 -23 0 -16 -22 57 -186 88 -195 153
-364 175 -455 21 -87 21 -88 -106 -429 -53 -146 -105 -288 -114 -317 -35 -107
-83 -131 -133 -66 -26 34 -28 42 -26 127 0 50 15 170 32 268 38 215 39 275 7
343 -42 91 -153 166 -270 181 -89 12 -282 -60 -370 -137 l-41 -36 12 -49 c6
-27 23 -94 37 -149 27 -103 48 -239 40 -259 -2 -6 -21 -22 -41 -36 -19 -13
-54 -48 -76 -77 -21 -29 -42 -53 -46 -53 -3 0 -14 32 -23 70 -10 39 -53 150
-97 248 -96 216 -113 264 -114 324 -1 40 5 53 39 94 62 74 100 126 248 333
252 351 348 461 426 485 58 19 73 19 164 1z m2909 -761 c36 -19 69 -42 284
-201 216 -160 339 -287 487 -507 67 -99 138 -230 149 -277 10 -39 -38 -105
-178 -244 -138 -138 -262 -240 -345 -284 -60 -32 -76 -32 -59 2 16 28 4 115
-37 280 -82 323 -229 628 -421 868 -58 72 -64 77 -154 114 -52 21 -102 47
-112 58 -17 19 -17 20 5 35 31 22 327 172 339 172 6 0 24 -7 42 -16z m-2915
-97 c68 -48 96 -98 100 -181 3 -61 -28 -279 -41 -292 -2 -2 -24 3 -48 12 -106
38 -298 26 -399 -26 -21 -11 -41 -17 -43 -12 -2 4 -8 36 -11 72 -4 36 -23 125
-42 199 -19 73 -34 137 -34 141 0 12 108 81 159 101 38 16 69 18 182 16 131
-2 137 -3 177 -30z m-926 -340 c-48 -102 -50 -104 -103 -126 -29 -13 -70 -26
-90 -28 -39 -6 -109 12 -109 27 0 5 41 30 91 56 103 53 193 117 230 161 40 49
34 19 -19 -90z m69 -113 c-16 -163 -17 -163 -129 -233 -132 -80 -209 -105
-265 -83 -16 7 -15 10 10 33 15 14 65 51 110 83 109 76 163 140 226 267 46 95
52 103 55 75 2 -17 -1 -81 -7 -142z m113 -50 c25 -62 46 -121 46 -132 0 -28
-106 -185 -176 -261 -71 -78 -129 -121 -161 -121 -44 0 -30 33 110 253 72 114
95 176 103 279 10 141 11 141 78 -18z m-1154 -1869 l0 -915 -30 0 -30 0 0 915
0 915 30 0 30 0 0 -915z m3370 0 l0 -915 -1665 0 -1665 0 0 915 0 915 1665 0
1665 0 0 -915z m-3480 400 c0 -14 0 -265 0 -557 l0 -533 -660 -3 -660 -2 0
560 0 560 660 0 660 0 0 -25z m4517 -2565 c-58 -53 -93 -118 -124 -231 -25
-91 -25 -321 0 -404 53 -174 146 -298 267 -356 38 -18 67 -35 65 -37 -2 -2
-38 6 -82 18 -218 61 -363 194 -418 384 -26 90 -17 276 18 375 49 138 129 230
244 277 85 35 91 30 30 -26z m422 -10 c100 -33 245 -73 327 -89 151 -31 362
-61 420 -61 31 0 33 -3 54 -66 12 -36 20 -68 17 -71 -18 -17 -107 -26 -287
-27 -204 -1 -205 -1 -252 -28 -52 -31 -88 -92 -88 -149 0 -58 48 -140 97 -167
85 -47 284 -65 476 -43 37 4 69 5 71 3 2 -2 -13 -47 -35 -99 -27 -68 -36 -100
-29 -108 13 -16 6 -19 -128 -49 -232 -53 -360 -68 -529 -63 -251 8 -387 49
-483 146 -156 157 -205 465 -116 719 43 122 156 210 269 212 21 0 118 -27 216
-60z m5687 -9 c139 -63 204 -212 191 -437 -10 -180 -67 -321 -175 -436 -98
-103 -197 -141 -372 -142 -92 -1 -238 14 -349 36 -105 20 -481 155 -509 182
-10 9 -11 36 -6 110 l7 98 31 -5 c17 -3 76 -16 131 -28 70 -15 138 -22 225
-23 115 -1 129 1 175 24 65 32 106 91 113 159 6 66 -29 129 -94 167 -39 23
-62 28 -161 35 -108 7 -304 45 -302 58 0 3 10 26 22 51 34 69 80 81 337 91
207 7 349 24 495 58 106 25 189 26 241 2z m160 -31 c148 -84 224 -234 224
-441 0 -302 -158 -499 -450 -559 -124 -26 -178 -26 -99 -1 137 44 235 129 308
270 63 121 85 213 85 361 1 175 -29 280 -103 359 -48 52 -40 55 35 11z m-5126
-50 c33 -18 33 -19 10 -19 -40 -1 -230 26 -237 33 -4 3 38 6 93 6 78 -1 106
-5 134 -20z m3975 -190 c44 -11 130 -23 191 -28 125 -10 164 -25 201 -82 40
-59 26 -131 -37 -183 -39 -33 -88 -47 -167 -47 -130 0 -390 50 -400 77 -8 21
30 166 61 237 23 51 29 57 49 52 12 -4 58 -15 102 -26z m-3835 -125 c22 -70
23 -80 12 -152 -7 -43 -19 -85 -28 -93 -24 -24 -420 -22 -490 3 -134 47 -168
193 -62 269 32 22 41 23 238 24 113 1 221 6 240 12 64 18 65 17 90 -63z"/>
<path d="M9550 11827 c-76 -18 -100 -33 -100 -63 0 -35 20 -39 95 -19 55 15
87 17 217 10 256 -12 243 -13 246 10 1 11 -1 25 -6 32 -20 30 -355 53 -452 30z"/>
<path d="M10635 11833 c-159 -14 -212 -36 -181 -78 12 -17 20 -18 109 -7 148
18 297 16 361 -7 57 -20 86 -14 86 18 0 62 -158 93 -375 74z"/>
<path d="M9924 11449 c-121 -58 -223 -59 -325 -2 -49 28 -71 26 -53 -5 15 -25
110 -69 163 -75 25 -3 73 -1 105 4 74 12 206 72 206 93 0 23 -26 19 -96 -15z"/>
<path d="M10490 11472 c0 -29 119 -87 210 -101 36 -6 82 -6 114 -1 62 10 151
52 160 75 9 25 -20 29 -51 8 -93 -64 -224 -63 -353 2 -50 26 -80 32 -80 17z"/>
<path d="M10110 11009 c0 -27 63 -85 108 -100 42 -14 129 -6 168 14 53 28 114
77 114 92 0 22 -16 18 -66 -16 -116 -80 -202 -80 -278 0 -35 36 -46 39 -46 10z"/>
<path d="M10175 10640 c-15 -24 11 -30 121 -30 105 0 115 2 112 18 -3 15 -18
17 -115 20 -69 2 -114 -1 -118 -8z"/>
<path d="M2804 9412 c-6 -4 -63 -97 -127 -207 -63 -110 -188 -325 -276 -478
-89 -153 -161 -287 -161 -298 0 -19 15 -19 570 -19 469 0 572 2 576 13 3 8
-61 128 -142 268 -397 689 -420 729 -427 729 -1 0 -7 -4 -13 -8z m196 -377
c95 -165 208 -362 252 -438 44 -76 78 -140 76 -143 -3 -2 -237 -3 -521 -2
l-516 3 95 165 c53 91 166 287 251 435 170 295 173 299 183 288 4 -4 85 -143
180 -308z"/>
<path d="M15557 9253 c-4 -3 -7 -201 -7 -439 0 -363 2 -433 14 -437 23 -9 840
-8 854 1 9 7 12 102 10 443 l-3 434 -431 3 c-237 1 -434 -1 -437 -5z m831
-435 l-3 -403 -397 -3 -398 -2 0 405 0 405 400 0 400 0 -2 -402z"/>
<path d="M8188 8768 c-8 -24 37 -183 53 -183 19 0 16 64 -8 134 -18 54 -37 74
-45 49z"/>
<path d="M13128 8704 c-72 -43 -91 -65 -69 -78 9 -6 119 53 154 82 20 17 23
42 5 42 -7 0 -48 -21 -90 -46z"/>
<path d="M7645 7981 c-8 -15 18 -36 109 -85 93 -51 106 -54 106 -28 0 13 -29
34 -94 70 -96 53 -111 59 -121 43z"/>
<path d="M10953 6684 c-70 -52 -91 -84 -57 -84 24 0 153 103 153 123 1 28 -20
20 -96 -39z"/>
<path d="M10550 6372 c-237 -186 -747 -584 -1036 -809 -94 -73 -177 -139 -184
-147 -14 -18 -4 -40 16 -32 8 3 155 115 327 249 435 340 856 668 956 746 46
36 105 82 130 101 46 36 59 63 31 67 -8 1 -116 -78 -240 -175z"/>
<path d="M9879 6012 c-145 -103 -330 -234 -411 -291 -139 -98 -172 -131 -130
-131 16 0 774 529 816 570 17 17 15 40 -3 40 -4 0 -126 -84 -272 -188z"/>
<path d="M4165 5930 c-207 -32 -385 -185 -448 -385 -28 -91 -30 -243 -3 -325
53 -159 150 -272 288 -338 132 -63 246 -77 377 -47 348 82 528 470 369 795
-43 89 -159 204 -251 249 -66 32 -190 61 -252 59 -16 0 -52 -4 -80 -8z m250
-61 c113 -38 226 -132 286 -237 36 -64 69 -186 69 -253 0 -231 -168 -444 -396
-503 -278 -72 -574 116 -633 402 -40 192 47 409 209 520 143 99 305 123 465
71z"/>
<path d="M15785 6328 c-3 -13 -4 -441 -3 -953 l3 -930 1755 0 1755 0 0 950 0
950 -1752 3 -1753 2 -5 -22z m3375 -933 l0 -915 -1670 0 -1670 0 0 915 0 915
1670 0 1670 0 0 -915z m100 0 l0 -915 -35 0 -35 0 0 908 c0 500 3 912 7 915 3
4 19 7 35 7 l28 0 0 -915z"/>
<path d="M17325 5810 c-49 -99 -96 -182 -104 -184 -9 -2 -94 -14 -189 -27 -96
-13 -181 -29 -190 -36 -15 -12 0 -29 130 -156 l147 -142 -34 -195 c-18 -107
-31 -198 -29 -202 10 -16 35 -6 202 81 l170 90 170 -90 c94 -49 178 -89 186
-89 22 0 21 14 -15 223 l-30 182 146 143 c105 103 144 147 136 155 -7 7 -297
56 -399 67 -1 0 -42 80 -90 177 -48 98 -94 179 -103 181 -10 2 -42 -52 -104
-178z m185 -49 c43 -88 83 -162 87 -164 5 -3 76 -15 158 -26 83 -12 163 -24
179 -28 29 -5 28 -7 -104 -134 l-134 -128 31 -178 c17 -98 29 -180 27 -182 -4
-4 -157 73 -281 141 l-42 23 -161 -84 c-89 -46 -163 -81 -166 -79 -2 3 10 83
27 178 l30 173 -43 44 c-24 25 -82 83 -130 131 -49 47 -86 87 -84 89 1 2 79
15 172 28 93 14 174 27 179 29 6 2 46 76 90 165 43 88 80 161 82 161 2 0 39
-72 83 -159z"/>
<path d="M913 3183 c-7 -2 -13 -11 -13 -19 0 -12 182 -14 1276 -14 1209 0
1275 1 1272 18 -3 16 -72 17 -1263 19 -693 0 -1266 -1 -1272 -4z"/>
<path d="M18792 3177 c-7 -8 -9 -17 -5 -20 3 -4 127 -7 275 -7 251 0 269 1
266 18 -3 16 -25 17 -264 20 -212 2 -263 0 -272 -11z"/>
</g>
</svg>
