<?xml version="1.0" standalone="no"?>
<!DOCTYPE svg PUBLIC "-//W3C//DTD SVG 20010904//EN"
 "http://www.w3.org/TR/2001/REC-SVG-20010904/DTD/svg10.dtd">
<svg version="1.0" xmlns="http://www.w3.org/2000/svg"
 width="2000.000000pt" height="2000.000000pt" viewBox="0 0 2000.000000 2000.000000"
 preserveAspectRatio="xMidYMid meet">

<g transform="translate(0.000000,2000.000000) scale(0.100000,-0.100000)"
fill="#000000" stroke="none">
<path d="M12807 18495 c-148 -57 -271 -106 -274 -109 -14 -13 9 -33 66 -55 33
-13 61 -27 61 -31 0 -4 -143 -144 -317 -311 -175 -167 -372 -356 -438 -421
-66 -64 -154 -147 -195 -186 l-74 -69 -61 33 c-33 18 -143 78 -244 133 -102
56 -190 101 -197 101 -7 0 -196 -111 -419 -247 l-405 -246 0 -89 c0 -70 3 -88
14 -88 8 0 160 89 338 197 178 108 355 216 394 240 39 24 76 43 81 43 5 0 126
-63 268 -141 l258 -140 36 33 c43 39 220 208 421 403 570 550 657 632 666 623
2 -3 15 -32 27 -64 13 -32 30 -60 38 -62 11 -2 45 67 127 260 62 145 112 268
112 275 0 6 -3 14 -7 16 -5 3 -129 -41 -276 -98z"/>
<path d="M5600 16850 c0 -1343 0 -1350 20 -1350 20 0 20 7 20 1350 0 1343 0
1350 -20 1350 -20 0 -20 -7 -20 -1350z"/>
<path d="M9750 16850 c0 -1343 0 -1350 20 -1350 20 0 20 7 20 1350 0 1343 0
1350 -20 1350 -20 0 -20 -7 -20 -1350z"/>
<path d="M13900 16850 c0 -1343 0 -1350 20 -1350 20 0 20 7 20 1350 0 1343 0
1350 -20 1350 -20 0 -20 -7 -20 -1350z"/>
<path d="M17245 17867 l-280 -162 -7 -55 c-3 -30 -6 -91 -7 -135 -1 -78 -2
-80 -32 -97 -17 -10 -36 -18 -42 -17 -7 0 -34 32 -62 70 -198 278 -582 443
-932 400 -114 -14 -279 -66 -373 -117 -270 -148 -462 -410 -521 -715 -16 -82
-16 -296 0 -378 136 -700 916 -1054 1531 -696 249 146 428 398 487 685 9 44
15 128 15 205 1 146 -18 243 -73 386 -30 79 -31 83 -13 96 10 7 21 13 25 13 5
0 63 -32 131 -71 68 -39 126 -73 129 -75 3 -2 21 5 40 15 129 68 301 157 399
207 63 32 117 60 120 62 6 4 -7 15 -139 111 l-101 74 0 179 c0 98 -3 178 -7
177 -5 0 -134 -74 -288 -162z m-1040 -52 c180 -38 378 -146 501 -277 51 -53
124 -147 124 -158 0 -5 -26 -23 -57 -41 l-57 -33 -15 24 c-102 154 -291 286
-486 342 -114 32 -316 32 -428 0 -235 -67 -421 -211 -531 -413 -198 -361 -108
-812 212 -1070 285 -229 697 -248 1000 -46 325 218 460 620 331 987 -17 47
-31 92 -32 100 -1 8 21 27 52 44 67 36 65 37 114 -112 76 -228 69 -460 -18
-676 -120 -297 -363 -511 -673 -593 -83 -22 -118 -26 -242 -26 -123 0 -159 4
-240 25 -188 50 -328 132 -465 272 -248 254 -339 606 -245 953 101 374 439
664 829 713 83 11 234 4 326 -15z m5 -185 c160 -45 306 -138 405 -258 30 -36
55 -72 55 -78 0 -7 -34 -31 -76 -54 l-77 -42 -25 32 c-72 93 -172 164 -290
208 -89 33 -246 41 -345 18 -222 -52 -410 -238 -462 -458 -19 -80 -19 -215 0
-295 65 -275 318 -473 605 -473 163 0 304 56 421 168 82 77 128 147 167 250
23 59 26 82 26 197 1 117 -2 138 -27 209 -15 43 -26 79 -25 81 2 1 38 21 81
44 l77 42 21 -48 c55 -126 80 -303 60 -433 -50 -322 -267 -572 -576 -666 -79
-24 -107 -27 -225 -27 -119 -1 -146 3 -225 27 -365 111 -606 451 -582 820 25
377 282 671 657 751 91 20 263 13 360 -15z m-67 -216 c114 -29 225 -98 296
-183 l41 -49 -79 -45 -79 -45 -43 44 c-23 23 -72 58 -108 76 -62 31 -72 33
-171 33 -98 0 -109 -2 -171 -32 -80 -39 -159 -120 -197 -200 -24 -52 -27 -70
-27 -163 0 -99 2 -110 33 -172 41 -84 128 -167 209 -199 83 -34 223 -33 308 0
83 33 184 135 215 217 31 83 37 179 15 260 -10 37 -14 69 -9 73 5 5 39 25 76
45 l67 37 14 -28 c47 -92 60 -261 28 -380 -54 -206 -235 -380 -439 -422 -257
-53 -523 74 -639 306 -53 106 -67 172 -61 298 6 118 29 187 95 287 75 114 193
201 328 239 77 23 218 24 298 3z m-3 -231 c43 -19 131 -86 138 -104 3 -7 -94
-69 -110 -69 -3 0 -28 37 -54 82 -52 91 -48 92 -74 -9 -10 -42 -12 -43 -51
-43 -73 0 -144 -47 -168 -113 -15 -39 -14 -121 3 -160 20 -48 76 -93 135 -107
86 -20 171 22 226 113 8 14 17 15 54 6 24 -5 46 -8 48 -5 3 3 -4 20 -14 38
-11 18 -32 54 -47 80 l-27 47 62 32 c69 34 71 33 90 -36 18 -63 6 -171 -24
-235 -34 -71 -104 -142 -175 -177 -50 -25 -68 -28 -152 -28 -85 0 -101 3 -155
29 -204 101 -268 353 -136 538 43 59 114 111 184 134 60 20 190 13 247 -13z
m-128 -179 c3 -3 -3 -37 -13 -77 -10 -40 -19 -77 -19 -83 0 -6 36 -19 80 -28
80 -18 91 -27 67 -56 -65 -79 -168 -87 -234 -18 -64 68 -64 154 0 216 38 37
103 62 119 46z"/>
<path d="M2768 17789 l-3 -132 -132 0 -133 1 0 -899 0 -899 953 2 952 3 0 895
0 895 -135 2 -135 1 -3 131 -3 131 -79 0 -79 0 -3 -132 -3 -132 -115 1 -115 1
-3 131 -3 131 -79 0 -80 0 0 -132 0 -133 -108 1 c-59 0 -113 1 -119 2 -10 2
-13 36 -13 132 l0 130 -80 0 -80 0 0 -130 c0 -71 -3 -130 -7 -130 -109 -7
-202 -8 -215 -4 -16 5 -18 20 -18 135 l0 129 -80 0 -79 0 -3 -131z m-12 -176
c10 -3 14 -24 14 -64 l0 -59 80 0 79 0 3 63 3 62 115 0 115 0 3 -62 3 -63 79
0 79 0 3 63 3 62 84 3 c46 2 99 1 118 -3 l33 -6 0 -59 0 -60 80 0 79 0 3 63 3
62 74 3 c41 2 94 1 118 -3 l43 -6 0 -60 0 -59 80 0 79 0 3 63 3 62 115 0 115
0 0 -203 0 -202 -909 0 c-500 0 -911 1 -912 3 -5 5 -6 61 -5 229 l1 177 101
-1 c56 0 108 -2 115 -5z m1612 -1080 l2 -633 -920 0 -920 0 0 628 c0 346 3
632 7 635 3 4 416 6 917 5 l911 -3 3 -632z"/>
<path d="M2650 16820 l0 -130 130 0 130 0 0 130 0 130 -130 0 -130 0 0 -130z
m220 0 l0 -90 -90 0 -90 0 0 90 0 90 90 0 90 0 0 -90z"/>
<path d="M2987 16944 c-10 -10 -8 -226 1 -242 7 -9 40 -12 133 -10 l124 3 0
125 0 125 -126 3 c-69 1 -128 -1 -132 -4z m223 -124 l0 -90 -95 0 -95 0 0 90
0 90 95 0 95 0 0 -90z"/>
<path d="M3324 16937 c-2 -7 -3 -65 -2 -128 l3 -114 128 -3 127 -3 0 131 0
130 -125 0 c-94 0 -127 -3 -131 -13z m216 -117 l0 -90 -90 0 -90 0 0 90 0 90
90 0 90 0 0 -90z"/>
<path d="M3660 16820 l0 -131 128 3 127 3 0 125 0 125 -127 3 -128 3 0 -131z
m220 0 l0 -91 -92 3 -93 3 -1 88 -2 87 94 0 94 0 0 -90z"/>
<path d="M3994 16937 c-2 -7 -3 -65 -2 -128 l3 -114 128 -3 127 -3 1 93 c1 51
2 102 2 113 1 58 7 55 -128 55 -94 0 -127 -3 -131 -13z m220 -117 l-1 -85 -92
-3 -91 -3 0 91 0 91 93 -3 92 -3 -1 -85z"/>
<path d="M2650 16470 l0 -130 130 0 131 0 -3 128 -3 127 -127 3 -128 3 0 -131z
m220 0 l0 -90 -90 0 -90 0 0 90 0 90 90 0 90 0 0 -90z"/>
<path d="M2985 16578 c-3 -13 -5 -70 -3 -128 l3 -105 130 0 130 0 0 125 0 125
-127 3 c-125 3 -128 2 -133 -20z m225 -108 l0 -90 -95 0 -95 0 0 90 0 90 95 0
95 0 0 -90z"/>
<path d="M3320 16470 l0 -130 130 0 130 0 0 130 0 130 -130 0 -130 0 0 -130z
m220 0 l0 -90 -90 0 -90 0 0 90 0 90 90 0 90 0 0 -90z"/>
<path d="M3660 16470 l0 -131 128 3 127 3 0 125 0 125 -127 3 -128 3 0 -131z
m220 0 l0 -91 -92 3 -93 3 0 80 c-1 44 1 83 3 88 2 4 43 7 93 7 l89 0 0 -90z"/>
<path d="M3994 16587 c-2 -7 -3 -65 -2 -128 l3 -114 128 -3 c126 -3 127 -2
128 20 0 21 0 197 -1 226 0 18 -249 17 -256 -1z m220 -119 l1 -88 -92 0 -93 0
0 90 0 91 92 -3 92 -3 0 -87z"/>
<path d="M2657 16244 c-4 -4 -7 -63 -7 -131 0 -133 -3 -127 55 -126 11 0 62 1
113 2 l93 1 -3 128 -3 127 -121 3 c-66 1 -123 -1 -127 -4z m213 -124 c0 -79
-2 -90 -17 -91 -10 0 -51 -1 -90 -2 l-73 -2 0 92 0 93 90 0 90 0 0 -90z"/>
<path d="M2987 16244 c-11 -12 -8 -242 3 -249 16 -10 241 -8 252 3 5 5 7 62 6
128 l-3 119 -126 3 c-69 1 -128 -1 -132 -4z m221 -125 l-3 -91 -90 0 -90 0 -3
78 c-2 42 -1 83 2 91 4 9 30 13 96 13 l91 0 -3 -91z"/>
<path d="M3327 16244 c-4 -4 -7 -63 -7 -131 0 -92 3 -123 13 -123 28 -1 213
-1 230 -1 16 1 17 12 15 129 l-3 127 -121 3 c-66 1 -123 -1 -127 -4z m213
-126 l0 -93 -90 0 -90 0 0 93 0 92 90 0 90 0 0 -92z"/>
<path d="M3667 16244 c-4 -4 -7 -63 -7 -130 l0 -123 108 -3 c168 -5 153 -18
150 131 l-3 126 -121 3 c-66 1 -123 -1 -127 -4z m211 -126 l-3 -91 -89 -1 -90
0 -3 69 c-7 116 -8 115 98 115 l90 0 -3 -92z"/>
<path d="M3997 16243 c-4 -3 -7 -62 -7 -130 l0 -123 130 0 130 0 0 130 0 130
-123 0 c-68 0 -127 -3 -130 -7z m217 -126 l0 -89 -79 0 c-44 0 -86 1 -92 1
-10 1 -13 26 -13 91 l0 91 91 -3 92 -3 1 -88z"/>
<path d="M7500 17874 c-169 -33 -331 -100 -446 -185 -275 -204 -425 -496 -425
-826 0 -289 100 -533 300 -734 303 -302 756 -384 1151 -207 150 68 318 208
417 349 62 90 119 212 150 326 24 88 27 115 27 258 0 143 -3 170 -27 258 -85
307 -283 543 -569 677 -137 63 -220 81 -398 85 -85 2 -166 1 -180 -1z m347
-50 c127 -26 235 -71 345 -144 206 -136 340 -318 414 -565 25 -83 28 -104 28
-260 0 -157 -2 -177 -28 -260 -115 -378 -394 -633 -775 -710 -112 -23 -313
-16 -425 14 -345 93 -625 373 -709 711 -139 551 208 1103 763 1215 93 19 295
18 387 -1z"/>
<path d="M7504 17760 c-68 -12 -209 -57 -259 -82 -74 -38 -180 -117 -247 -185
-180 -185 -267 -418 -255 -683 29 -616 644 -1023 1225 -811 285 104 492 335
574 640 25 93 30 303 9 396 -78 353 -323 612 -666 705 -90 25 -295 35 -381 20z
m366 -55 c78 -21 211 -81 275 -125 123 -85 244 -230 306 -367 222 -489 -59
-1070 -583 -1204 -402 -102 -812 90 -1002 468 -65 130 -81 207 -81 383 0 167
8 207 66 344 114 269 378 472 674 519 62 10 281 -1 345 -18z"/>
<path d="M7545 17674 c-339 -53 -609 -292 -696 -619 -30 -110 -30 -297 -1
-407 91 -340 361 -576 710 -620 362 -46 730 174 863 517 180 463 -73 970 -551
1105 -74 21 -258 34 -325 24z m313 -64 c404 -114 649 -512 566 -918 -48 -235
-203 -437 -418 -542 -140 -69 -204 -84 -356 -84 -145 0 -213 15 -335 74 -106
51 -198 122 -266 206 -71 88 -102 142 -139 242 -94 257 -44 539 134 764 110
139 310 251 501 282 64 10 241 -3 313 -24z"/>
<path d="M7620 17492 l0 -57 -51 -12 c-153 -37 -232 -153 -215 -317 10 -99 54
-164 192 -287 149 -132 176 -169 182 -246 6 -92 -40 -134 -112 -102 -32 15
-55 63 -64 134 -4 31 -10 56 -15 56 -31 3 -180 -27 -184 -37 -7 -19 17 -135
38 -184 11 -25 34 -60 51 -78 35 -35 121 -72 168 -72 l30 0 0 -65 0 -65 35 0
35 0 0 63 0 62 58 17 c117 35 183 129 183 261 0 149 -46 223 -254 410 -123
111 -153 180 -108 253 24 39 64 51 98 29 28 -19 38 -42 48 -112 6 -48 9 -52
28 -48 27 6 148 25 161 25 15 0 -2 118 -25 170 -34 80 -116 140 -191 140 -15
0 -18 10 -18 60 l0 60 -35 0 -35 0 0 -58z"/>
<path d="M12660 16726 l0 -915 218 2 217 2 3 913 2 912 -220 0 -220 0 0 -914z
m400 -1 l0 -875 -180 0 -180 0 0 875 0 875 180 0 180 0 0 -875z"/>
<path d="M12072 16488 l3 -673 215 0 215 0 3 673 2 672 -220 0 -220 0 2 -672z
m396 0 l-3 -633 -177 -3 -178 -2 0 635 0 635 180 0 180 0 -2 -632z"/>
<path d="M10892 16458 l3 -643 215 0 215 0 3 643 2 642 -220 0 -220 0 2 -642z
m396 0 l-3 -603 -177 -3 -178 -2 0 605 0 605 180 0 180 0 -2 -602z"/>
<path d="M10300 16310 l0 -500 218 2 217 3 0 495 0 495 -217 3 -218 2 0 -500z
m395 0 l0 -455 -177 -3 -178 -2 0 460 0 460 178 -2 177 -3 0 -455z"/>
<path d="M11480 16310 l0 -501 218 3 217 3 3 498 2 497 -220 0 -220 0 0 -500z
m398 3 l-3 -458 -177 -3 -178 -2 0 460 0 460 180 0 180 0 -2 -457z"/>
<path d="M13410 15383 c-276 -28 -497 -93 -639 -187 -82 -55 -130 -109 -167
-190 -24 -52 -26 -66 -22 -149 7 -143 50 -231 247 -512 97 -138 129 -203 138
-274 17 -143 -107 -256 -337 -307 -169 -37 -735 -37 -1079 1 -554 62 -953 167
-1416 375 -565 253 -1093 404 -1630 465 -178 20 -497 20 -622 0 -210 -34 -422
-125 -459 -196 -18 -35 -18 -111 0 -169 14 -45 22 -65 129 -316 94 -219 120
-357 97 -498 -11 -73 -58 -197 -75 -203 -5 -1 -25 38 -44 89 -19 50 -72 167
-118 261 -59 120 -83 179 -83 206 0 45 -37 122 -86 180 -45 52 -109 85 -222
114 -77 19 -112 22 -307 21 -182 0 -241 -3 -340 -22 -200 -36 -362 -92 -497
-171 -38 -22 -68 -37 -68 -34 0 4 19 63 41 132 62 189 65 342 8 422 -82 116
-471 145 -1064 78 -436 -48 -1022 -157 -1315 -245 -105 -31 -218 -73 -224 -83
-3 -4 8 -48 24 -97 195 -607 354 -1246 410 -1638 25 -179 27 -406 6 -528 -45
-253 -154 -454 -274 -505 -62 -27 -150 -21 -227 16 -76 35 -120 67 -219 159
-173 161 -333 213 -511 167 -171 -45 -333 -210 -419 -428 -55 -139 -68 -222
-73 -485 -6 -259 4 -406 38 -575 90 -449 322 -577 701 -386 34 17 146 82 250
144 206 125 275 155 346 155 134 0 214 -147 268 -490 21 -129 23 -499 5 -670
-36 -331 -100 -670 -227 -1193 -46 -192 -83 -351 -81 -353 8 -9 421 -168 577
-222 205 -72 456 -150 590 -183 52 -13 96 -24 98 -25 2 -1 -29 -175 -68 -386
-39 -210 -112 -601 -161 -868 -49 -267 -106 -572 -126 -678 -20 -110 -32 -197
-27 -202 10 -9 220 -77 339 -110 44 -12 83 -25 87 -28 16 -16 41 -466 47 -842
l6 -405 28 -3 c15 -2 27 -9 27 -15 0 -7 45 -394 100 -860 55 -467 100 -859
100 -873 l0 -24 -2215 0 c-2208 0 -2215 0 -2215 -20 0 -20 7 -20 9125 -20
9118 0 9125 0 9125 20 0 20 -7 20 -2340 20 l-2340 0 0 118 c0 64 5 203 10 307
24 466 35 511 253 1036 113 271 163 441 206 690 l17 104 100 12 c132 17 235
40 264 60 23 16 23 18 16 155 -11 228 -53 633 -87 828 -11 63 -53 246 -94 406
-173 677 -205 964 -150 1340 30 202 60 522 76 809 6 116 15 214 20 219 14 15
396 -10 619 -39 361 -49 754 -127 1225 -245 149 -37 271 -66 273 -65 1 1 -13
58 -32 126 -227 806 -362 1625 -327 1987 23 242 140 513 254 586 37 25 110 23
171 -3 26 -12 112 -63 190 -115 162 -107 179 -117 262 -144 199 -65 380 -20
518 129 105 114 173 264 220 488 127 602 -43 1174 -367 1230 -129 22 -268 -12
-403 -100 -181 -118 -258 -145 -387 -135 -95 7 -151 30 -199 84 -65 72 -106
171 -135 326 -21 114 -24 520 -5 706 40 386 161 1018 271 1414 10 36 17 66 15
66 -2 0 -27 -15 -56 -34 -235 -150 -597 -259 -1043 -316 -329 -41 -940 -39
-1244 6 -107 16 -239 53 -302 85 -49 24 -97 81 -105 124 -10 54 19 128 95 240
261 385 335 572 297 753 -24 118 -80 211 -158 268 -138 98 -358 145 -678 142
-102 -1 -201 -3 -220 -5z m520 -48 c253 -36 402 -119 466 -261 89 -199 37
-380 -217 -760 -110 -164 -137 -219 -145 -286 -13 -123 84 -209 296 -264 290
-74 1062 -83 1510 -18 309 45 591 125 805 229 61 29 111 52 113 51 1 -2 -20
-95 -47 -207 -118 -484 -193 -930 -221 -1304 -26 -357 4 -653 84 -821 62 -130
130 -185 256 -205 143 -22 248 6 405 106 56 35 126 76 156 89 66 30 185 50
248 41 314 -44 480 -588 360 -1180 -52 -256 -149 -444 -280 -540 -84 -62 -144
-80 -259 -79 -130 1 -208 33 -412 168 -87 57 -179 111 -205 120 -60 21 -136
20 -179 0 -98 -47 -221 -276 -270 -501 -22 -103 -22 -414 1 -608 43 -375 144
-883 267 -1340 59 -221 62 -235 55 -235 -4 0 -104 24 -224 54 -678 169 -1261
267 -1677 281 l-159 5 2 88 c3 128 20 432 31 547 13 137 12 461 -1 570 -26
208 -93 373 -182 448 -64 54 -119 108 -243 238 -83 88 -128 125 -265 217
l-166 110 -33 79 c-67 159 -100 274 -110 378 -9 102 1 281 17 295 4 4 58 40
118 81 123 82 288 239 349 332 l37 58 47 -39 c66 -54 125 -87 212 -116 147
-49 240 -43 271 17 6 12 13 23 14 25 2 2 35 -10 73 -27 107 -47 192 -64 297
-58 194 10 298 103 297 265 -1 37 -6 80 -11 96 -19 48 -15 51 75 69 95 18 191
59 243 104 31 26 35 36 39 89 3 54 0 64 -35 122 -21 35 -69 95 -107 133 l-68
70 63 58 c75 69 122 143 144 226 64 250 -96 406 -452 440 l-73 7 24 41 c57 99
56 231 -3 362 -22 48 -39 70 -72 92 -40 26 -49 28 -148 28 -146 -1 -210 -23
-501 -172 -3 -2 -11 27 -18 64 -39 204 -145 279 -290 207 -134 -67 -223 -218
-267 -453 -8 -47 -17 -86 -19 -88 -2 -2 -28 11 -57 30 -186 118 -554 191 -840
167 -152 -14 -252 -39 -359 -92 -70 -34 -102 -58 -180 -137 -180 -180 -324
-400 -354 -541 -8 -36 -24 -149 -36 -251 -24 -209 -51 -347 -78 -392 -10 -17
-53 -58 -97 -92 -85 -64 -125 -113 -125 -152 0 -55 67 -149 135 -188 l42 -25
23 -108 c38 -177 108 -410 146 -490 32 -66 41 -76 82 -95 41 -19 67 -22 206
-24 87 -1 160 -4 162 -6 5 -5 94 -633 94 -664 0 -15 -27 -50 -76 -100 -150
-153 -332 -395 -439 -583 -27 -47 -56 -94 -66 -105 -53 -62 -200 -299 -259
-420 -103 -208 -179 -450 -211 -665 -6 -44 -14 -80 -16 -80 -3 0 -96 -20 -207
-45 -355 -79 -641 -161 -1111 -318 -331 -111 -297 -106 -319 -49 -123 325
-196 608 -250 982 -42 281 -57 466 -63 775 -9 486 29 842 112 1022 19 42 32
57 61 69 70 29 139 -10 359 -207 223 -200 306 -249 435 -257 68 -4 85 -1 134
21 163 75 348 281 424 473 67 171 87 294 79 503 -6 176 -32 315 -92 499 -101
306 -217 483 -359 548 -52 23 -67 26 -140 22 -126 -7 -237 -65 -441 -228 -168
-135 -238 -177 -320 -190 -124 -20 -205 48 -258 215 -69 219 -45 590 84 1300
69 381 224 1140 235 1154 2 2 74 -28 161 -67 478 -212 999 -334 1595 -373 250
-16 777 -7 877 16 273 61 403 205 357 394 -18 72 -36 103 -183 320 -153 225
-196 322 -196 441 1 110 62 208 180 286 230 153 726 227 1133 169z m-5585
-755 c468 -32 1007 -161 1505 -360 58 -23 108 -45 112 -49 4 -3 -2 -42 -12
-86 -87 -375 -243 -1195 -290 -1520 -71 -502 -64 -800 24 -974 59 -115 124
-155 240 -149 97 4 166 40 333 172 211 166 294 216 399 241 209 50 378 -129
512 -545 75 -231 87 -309 87 -535 -1 -184 -3 -208 -27 -296 -63 -231 -197
-427 -375 -546 -80 -54 -114 -66 -184 -65 -108 2 -208 62 -420 253 -132 118
-223 187 -277 209 -19 7 -53 10 -84 8 -43 -5 -57 -11 -84 -40 -17 -19 -41 -61
-54 -94 -29 -77 -65 -267 -82 -424 -16 -163 -17 -748 0 -940 44 -498 131 -934
256 -1280 31 -85 57 -159 59 -164 2 -11 -108 -45 -353 -111 -472 -126 -955
-221 -1318 -259 l-141 -15 -246 105 c-135 57 -250 104 -255 104 -6 0 -10 3
-10 8 0 4 -2 36 -5 72 -3 36 -9 139 -15 230 l-11 165 31 80 c44 113 61 192 60
293 0 141 -44 261 -133 358 l-47 52 -50 248 c-28 137 -125 550 -215 917 -91
368 -165 673 -165 678 0 5 7 9 15 9 56 0 27 167 -87 504 l-23 69 -105 48 c-77
34 -106 52 -108 67 -3 18 54 322 62 329 2 2 84 -1 183 -8 99 -6 260 -9 359 -8
163 4 183 6 226 27 54 27 80 58 99 120 16 54 3 210 -47 555 -19 130 -34 241
-34 246 0 4 28 18 63 31 131 47 207 112 207 176 0 49 -27 97 -136 242 -98 129
-143 206 -175 301 -27 77 -24 122 10 184 52 93 75 188 75 312 0 144 -21 219
-125 461 -103 239 -119 286 -119 344 0 60 24 92 99 129 66 34 215 84 297 101
129 27 293 33 499 20z m-2703 -105 c91 -16 163 -49 192 -89 19 -24 21 -41 21
-144 -1 -114 -2 -121 -52 -267 l-51 -150 -93 -95 c-109 -110 -158 -189 -198
-315 -91 -281 -62 -610 94 -1063 25 -73 45 -141 45 -152 0 -30 -117 -496 -141
-562 -12 -32 -25 -58 -30 -58 -5 0 -33 11 -63 25 -30 14 -58 25 -63 25 -11 -1
-237 -349 -241 -371 -2 -10 6 -23 18 -29 l21 -11 -21 -27 c-50 -66 -186 -260
-258 -368 -153 -231 -205 -327 -318 -589 -169 -388 -180 -434 -171 -694 7
-195 106 -1143 197 -1885 14 -114 20 -222 20 -374 0 -199 -1 -213 -17 -208
-10 3 -67 19 -128 35 -150 40 -371 110 -545 170 -232 82 -540 205 -540 217 0
6 33 150 74 320 161 668 214 977 236 1353 22 383 -32 754 -133 921 -43 71
-100 111 -166 118 -93 9 -180 -27 -386 -156 -148 -93 -325 -185 -402 -208 -86
-26 -197 -24 -255 5 -186 90 -280 399 -280 921 -1 248 13 354 65 502 18 52 48
121 67 153 45 75 147 185 211 225 106 69 241 87 360 50 83 -25 136 -60 240
-154 154 -141 262 -198 375 -198 182 -1 317 162 391 471 68 285 30 671 -127
1306 -64 261 -184 685 -250 888 -22 70 -38 131 -35 137 14 23 323 107 635 174
381 81 963 160 1215 165 55 1 102 5 105 8 9 9 299 -8 382 -22z m1422 -780 c83
-15 142 -12 221 10 17 5 29 -14 89 -137 101 -210 164 -373 175 -453 20 -136
68 -232 212 -424 55 -74 105 -145 110 -159 27 -72 -15 -123 -143 -172 -79 -31
-86 -32 -144 -21 -78 14 -173 14 -250 0 -151 -28 -229 -114 -325 -361 -19 -49
-39 -88 -45 -88 -46 0 -275 213 -353 328 -80 119 -142 280 -181 471 -11 54
-20 122 -20 150 0 45 5 56 37 92 20 22 86 70 147 106 157 92 210 134 235 186
37 77 24 127 -74 272 -29 44 -56 90 -60 102 -8 29 38 79 90 98 53 19 172 19
279 0z m-1037 -769 c41 -34 86 -139 123 -281 17 -66 35 -132 39 -146 5 -16 4
-35 -4 -50 -10 -17 -12 -74 -10 -210 4 -210 23 -317 74 -416 38 -73 66 -104
166 -184 74 -59 371 -263 396 -271 13 -4 1 -93 -32 -236 -10 -45 -19 -98 -19
-117 0 -19 -2 -35 -4 -35 -3 0 -80 34 -173 76 -92 42 -211 96 -263 119 -52 23
-261 117 -463 209 -203 91 -373 166 -378 166 -11 0 -4 29 16 70 7 14 20 54 28
90 9 36 39 157 67 269 27 112 50 212 50 223 0 18 5 19 53 13 51 -7 55 -5 79
23 14 17 33 61 43 99 9 37 19 74 21 82 3 9 19 -3 45 -33 54 -61 91 -79 159
-79 66 0 100 9 100 28 0 11 -17 14 -72 12 -53 -1 -82 3 -106 16 -101 54 -170
286 -128 430 18 63 65 123 111 143 42 18 49 17 82 -10z m6848 -117 c192 -35
242 -153 166 -394 -56 -175 -43 -226 83 -332 82 -68 89 -86 80 -203 -7 -96 8
-149 46 -170 35 -18 64 -4 120 57 82 91 116 102 170 57 37 -32 101 -124 125
-179 64 -155 29 -251 -132 -356 -40 -26 -104 -59 -143 -75 -49 -19 -70 -32
-70 -45 0 -23 190 -203 278 -263 l69 -48 -9 -41 c-16 -69 -12 -303 6 -382 17
-73 63 -203 102 -293 l23 -53 -37 -15 c-74 -31 -238 -113 -279 -141 -200 -136
-533 -399 -708 -560 -165 -153 -331 -337 -404 -451 -37 -58 -40 -59 -139 -37
-99 23 -99 22 -62 94 124 247 302 495 513 716 70 73 85 94 81 115 -15 94 -64
464 -61 467 3 2 10 -17 17 -42 7 -25 16 -42 21 -38 4 4 50 85 102 178 170 306
166 297 115 276 -13 -6 -90 -36 -173 -68 l-150 -58 -160 0 c-179 0 -213 8
-244 59 -46 77 -107 271 -161 516 -31 145 -34 150 -61 150 -27 0 -92 62 -120
115 -22 42 -23 47 -9 72 8 15 40 46 70 70 30 24 71 57 91 73 20 16 44 45 53
64 26 54 53 192 75 386 31 262 37 287 85 385 49 101 113 194 210 307 56 64 73
78 109 86 59 14 242 14 312 1z m-5615 -694 c60 -40 101 -54 193 -62 56 -5 67
-9 67 -24 0 -16 -8 -19 -59 -19 -112 0 -271 71 -271 120 0 27 10 25 70 -15z
m-1654 -661 c154 -69 367 -165 474 -214 489 -222 753 -340 785 -351 l35 -13 0
-263 c0 -145 -3 -263 -6 -263 -4 0 -48 22 -98 49 -50 27 -262 135 -471 241
-209 106 -429 219 -490 250 -60 32 -248 128 -417 214 -170 87 -308 160 -308
162 0 3 30 51 67 107 36 56 81 126 100 155 18 28 37 52 42 52 5 0 134 -57 287
-126z m-348 -576 c86 -50 234 -136 327 -191 175 -102 284 -166 440 -256 50
-29 106 -64 126 -77 l36 -24 184 9 c101 4 188 5 193 0 9 -8 -31 -63 -98 -134
l-34 -35 67 -53 c36 -28 75 -60 86 -69 11 -9 83 -67 160 -128 77 -62 139 -116
137 -121 -1 -5 1 -8 5 -8 21 3 26 -2 13 -12 -12 -9 -12 -10 3 -5 24 8 253
-172 238 -187 -11 -11 -34 0 -26 13 3 4 -2 7 -10 6 -21 -2 -436 334 -429 346
4 7 2 8 -4 4 -6 -4 -63 33 -129 85 -160 124 -149 113 -129 144 9 14 22 23 28
19 7 -5 8 -3 3 5 -4 8 2 23 17 39 13 15 32 37 42 50 l19 22 -59 -5 c-32 -2
-108 -7 -169 -9 -106 -5 -112 -4 -160 23 -27 15 -49 33 -47 40 1 7 -2 9 -8 6
-6 -4 -68 26 -138 66 -163 93 -194 114 -184 124 4 5 1 5 -6 1 -7 -4 -18 -3
-25 2 -7 5 -32 20 -57 34 -25 14 -94 54 -155 90 -60 36 -181 107 -267 159 -87
51 -158 99 -158 106 0 7 2 13 6 13 3 0 76 -41 162 -92z m1760 -104 c38 -117
88 -301 96 -362 12 -79 -17 -42 -44 57 l-25 92 -52 30 -53 31 0 134 0 133 23
-8 c17 -6 29 -30 55 -107z m-32 -223 c28 -17 33 -28 64 -157 18 -77 70 -290
116 -474 46 -184 82 -336 80 -337 -3 -3 -166 285 -316 557 -31 57 -53 79 -192
190 -86 69 -160 129 -165 134 -4 5 69 -30 163 -78 94 -47 178 -86 187 -86 15
0 17 16 17 135 0 74 3 135 8 135 4 0 21 -9 38 -19z m6965 -588 c70 -49 129
-91 129 -95 0 -5 -60 -38 -132 -74 -558 -279 -1033 -652 -1268 -994 -226 -330
-460 -938 -630 -1636 -23 -93 -43 -171 -46 -173 -11 -12 -31 69 -27 114 66
755 186 1337 338 1650 148 303 507 655 1109 1090 53 39 127 86 164 105 77 39
213 100 225 100 5 0 67 -39 138 -87z m292 -234 c53 -56 97 -105 97 -108 0 -3
-34 -5 -76 -3 -85 4 -106 -1 -98 -21 4 -11 29 -16 93 -19 69 -3 99 -10 143
-31 136 -67 218 -228 248 -489 16 -133 8 -522 -15 -723 -88 -795 -238 -1715
-346 -2133 -51 -198 -56 -208 -122 -227 -144 -41 -462 -77 -1243 -140 -303
-24 -838 -36 -1466 -33 -328 2 -599 6 -603 9 -7 8 -59 638 -53 644 2 2 139 27
304 54 500 83 1560 257 1889 311 171 28 322 53 336 56 l25 5 12 622 c17 848
17 857 -7 857 -18 0 -19 -18 -26 -397 -4 -219 -10 -516 -14 -660 l-6 -263 -74
60 c-40 34 -78 59 -84 57 -26 -8 -14 -29 45 -77 120 -99 119 -99 116 -133 l-3
-32 -310 -51 c-552 -92 -999 -165 -1028 -167 -28 -2 -29 -1 -93 183 -194 558
-194 559 -201 770 -3 91 -3 163 0 160 3 -3 21 -67 41 -143 47 -175 116 -390
173 -537 46 -119 113 -260 124 -260 3 0 18 60 33 133 37 176 140 547 216 782
176 539 364 917 578 1161 194 221 540 490 879 683 161 91 377 201 398 201 13
0 56 -38 118 -101z m-9607 -775 c-33 -952 -37 -1057 -43 -1067 -2 -4 -9 -4
-15 -1 -6 4 -8 43 -4 108 3 55 5 152 6 214 0 62 3 111 8 109 4 -3 7 70 7 161
0 92 3 264 8 382 4 118 12 352 18 520 5 168 12 311 15 319 3 10 8 11 15 4 6
-6 2 -253 -15 -749z m1444 437 c0 -53 -14 -111 -26 -111 -16 0 -17 16 -8 84 4
29 12 46 20 46 8 0 14 -8 14 -19z m-30 -275 c0 -2 -16 -154 -35 -338 -19 -183
-43 -430 -55 -548 -12 -118 -29 -294 -40 -390 -52 -487 -62 -591 -64 -657 0
-39 1 -70 4 -68 3 2 20 -94 39 -213 18 -120 46 -296 61 -392 16 -96 34 -211
40 -255 7 -44 14 -89 16 -100 25 -149 26 -181 4 -159 -10 10 -66 337 -85 494
-4 30 -54 344 -89 554 l-25 148 39 367 c44 405 90 858 115 1111 9 91 23 224
31 295 8 72 14 136 14 143 0 6 7 12 15 12 8 0 15 -2 15 -4z m6157 -267 c48
-11 89 -22 91 -23 1 -2 -13 -36 -32 -77 -129 -280 -238 -777 -303 -1379 -9
-88 -19 -157 -22 -154 -13 13 -31 199 -37 384 -12 376 32 767 120 1053 23 78
80 217 87 217 4 0 47 -9 96 -21z m-206 -144 c-58 -164 -94 -343 -122 -610 -14
-131 -18 -532 -7 -690 5 -72 4 -93 -3 -75 -20 49 -81 258 -125 430 -44 169
-45 177 -34 240 30 168 116 432 188 575 50 100 124 227 129 222 2 -3 -9 -44
-26 -92z m-4365 -423 c35 -74 56 -192 48 -267 -7 -64 -35 -172 -53 -202 -10
-17 -10 -17 -11 0 0 37 -41 417 -54 502 l-13 90 29 -35 c16 -19 40 -59 54 -88z
m4033 -877 c11 -44 32 -116 46 -160 l25 -80 -17 -254 c-16 -237 -18 -254 -38
-262 -11 -5 -218 -41 -460 -80 l-440 -72 -159 12 c-87 6 -209 22 -270 36 -61
13 -140 27 -176 31 -57 6 -71 12 -115 49 -81 69 -119 85 -200 85 -87 0 -184
-26 -335 -90 -95 -40 -130 -50 -201 -56 -86 -6 -86 -6 -180 36 -52 23 -128 56
-169 72 -113 45 -151 61 -320 133 -85 36 -210 89 -278 117 -67 28 -121 52
-119 54 2 2 75 13 163 24 593 77 1224 229 1949 471 462 154 766 241 1085 309
l175 37 6 -166 c5 -118 13 -189 28 -246z m2926 104 c-26 -373 -44 -541 -79
-774 -20 -127 -20 -343 -1 -510 26 -226 61 -388 183 -865 28 -107 62 -265 76
-350 46 -279 101 -883 84 -907 -34 -45 -460 -86 -1123 -108 -625 -21 -1427
-70 -1653 -101 -63 -9 -117 -12 -122 -8 -4 5 -17 99 -29 209 -12 109 -25 202
-30 205 -8 6 -129 413 -138 466 -3 18 0 70 6 116 10 65 154 820 166 863 2 7
150 15 421 23 231 7 430 14 444 16 14 2 66 7 115 10 154 11 663 56 810 71 283
30 445 59 506 90 50 26 89 156 169 553 65 326 200 1146 200 1213 0 7 2 10 5 7
3 -3 -1 -102 -10 -219z m-2751 -637 c31 -90 56 -169 56 -177 0 -14 -136 -43
-147 -31 -3 3 -1 83 6 178 6 95 11 182 11 193 0 38 18 -2 74 -163z m-1878
-223 c90 -43 245 -239 300 -380 32 -81 28 -97 -28 -116 -52 -17 -107 0 -170
55 -29 25 -77 60 -105 79 l-53 33 -48 -24 c-71 -36 -166 -65 -238 -72 -52 -6
-64 -10 -64 -25 0 -11 9 -19 25 -21 23 -3 18 -11 -67 -103 -50 -55 -126 -137
-169 -183 l-78 -82 -101 56 c-55 31 -100 59 -100 62 0 4 42 137 93 297 l92
290 44 7 c34 6 47 4 55 -8 10 -13 25 -8 116 35 239 114 401 147 496 100z
m-846 -78 c49 -22 86 -45 88 -55 2 -8 -12 -64 -31 -123 -20 -60 -68 -209 -107
-333 -40 -124 -74 -228 -76 -231 -4 -6 -182 35 -188 43 -8 8 209 738 218 737
6 0 49 -17 96 -38z m1205 -63 c55 -12 174 -28 265 -37 l165 -16 20 -279 20
-279 -40 -17 c-22 -9 -72 -29 -112 -44 -68 -26 -73 -26 -102 -12 -39 21 -76
20 -112 -1 -30 -18 -54 -64 -51 -99 1 -16 -5 -23 -26 -27 -43 -9 -81 -44 -88
-82 -5 -27 -11 -35 -28 -35 -30 0 -83 -35 -91 -60 -5 -15 -11 -19 -23 -14 -10
4 -35 9 -58 12 -33 3 -46 -1 -71 -22 -18 -15 -34 -40 -38 -56 -4 -17 -9 -30
-12 -30 -4 0 -31 14 -60 30 l-54 31 -52 -30 c-47 -27 -57 -29 -99 -21 -202 38
-220 131 -60 302 37 39 60 69 52 65 -8 -3 -82 -35 -165 -71 -82 -36 -162 -66
-177 -66 -17 0 -41 12 -60 29 l-33 30 36 38 c19 21 120 129 223 240 165 178
192 204 229 213 23 6 75 24 116 41 l73 30 37 -24 c21 -14 59 -43 85 -66 59
-51 72 -58 135 -72 43 -9 56 -8 95 10 59 26 73 54 57 117 -15 59 -57 143 -115
227 -25 37 -46 69 -46 72 0 5 33 0 165 -27z m-3034 -273 c16 -60 25 -113 21
-116 -6 -6 -913 -69 -979 -69 -13 0 -23 6 -23 13 0 10 111 20 482 45 264 17
483 34 486 36 5 6 -28 151 -39 167 -5 9 -76 10 -296 2 -262 -10 -321 -7 -300
13 8 8 357 22 511 20 l110 -1 27 -110z m-805 68 c-10 -11 -319 -21 -330 -12
-20 18 9 23 162 29 146 5 186 1 168 -17z m1774 -352 c289 -66 576 -132 638
-146 62 -14 117 -23 121 -20 5 2 12 19 15 37 12 63 16 64 102 17 111 -60 108
-56 79 -91 -23 -28 -24 -31 -10 -58 36 -69 103 -94 185 -69 31 10 42 9 61 -4
19 -14 22 -24 20 -70 -2 -40 2 -59 17 -78 51 -64 211 -115 268 -86 51 26 189
-1 220 -43 7 -8 33 -26 59 -39 61 -31 104 -23 144 26 l29 36 65 -37 c67 -37
108 -44 150 -25 27 12 57 58 57 87 0 15 9 21 39 26 50 8 91 53 91 102 0 26 4
34 18 34 9 0 31 9 49 20 70 42 63 151 -11 187 -20 9 -36 20 -36 23 0 7 154 70
171 70 5 0 9 -17 9 -39 l0 -38 53 -7 c28 -3 204 -6 390 -6 185 0 337 -1 337
-3 0 -1 -38 -117 -85 -257 -125 -373 -242 -747 -280 -895 -38 -146 -84 -409
-87 -500 -3 -56 -1 -60 20 -63 12 -2 22 -5 22 -6 0 -2 -22 -95 -49 -207 -70
-288 -109 -521 -96 -578 7 -34 47 -69 182 -160 82 -54 105 -64 200 -87 59 -14
109 -26 110 -28 2 -2 -24 -120 -57 -262 -109 -462 -142 -645 -158 -864 l-7
-105 -2102 -3 c-2086 -2 -2103 -2 -2103 18 0 10 11 93 25 182 35 233 53 412
60 578 8 193 21 379 51 702 13 148 24 272 24 278 0 5 43 11 98 12 l97 3 3 660
2 661 123 30 122 30 -2 592 c-1 550 0 593 15 588 9 -3 253 -59 542 -125z
m2319 -191 c78 -39 111 -69 111 -101 0 -28 -39 -69 -66 -69 -25 0 -183 84
-196 104 -25 37 9 106 52 106 11 0 56 -18 99 -40z m-5581 -3 c5 -7 100 -253
210 -547 l200 -535 45 -3 c50 -3 45 9 63 -139 6 -50 12 -57 41 -54 7 1 14 -18
18 -46 26 -192 97 -489 171 -718 29 -87 65 -145 92 -145 9 0 24 -5 32 -10 10
-6 -197 -10 -592 -10 l-608 0 0 1103 c0 607 3 1107 7 1111 12 12 311 5 321 -7z
m2420 -1099 l2 -1108 -387 0 -388 0 -25 27 c-21 22 -27 41 -36 132 -6 58 -10
107 -9 108 1 2 24 -19 53 -47 52 -50 115 -77 152 -65 28 9 36 52 18 84 -9 14
-23 69 -33 121 -51 281 -67 346 -92 385 -41 65 -74 95 -137 127 -60 30 -141
100 -178 151 -28 39 -63 198 -47 208 15 9 16 2 -90 552 -45 230 -79 423 -76
428 4 5 252 8 638 7 l632 -3 3 -1107z m4472 1086 c0 -9 -32 -175 -70 -369 -39
-195 -81 -426 -95 -514 -14 -88 -45 -243 -69 -343 -25 -101 -61 -255 -82 -343
-20 -88 -40 -163 -43 -166 -6 -6 -346 63 -355 72 -10 10 32 273 70 444 36 158
133 469 377 1203 l10 32 129 0 c110 0 128 -2 128 -16z m-2380 -83 c0 -12 -20
-25 -27 -18 -7 7 6 27 18 27 5 0 9 -4 9 -9z m965 -45 c56 -31 83 -51 89 -70
23 -63 -37 -118 -92 -84 -15 9 -56 34 -92 54 -71 41 -80 50 -80 77 0 25 45 67
72 67 13 0 59 -20 103 -44z m-146 -116 c43 -21 86 -46 95 -55 38 -38 5 -115
-50 -115 -14 0 -57 16 -94 36 -55 29 -73 44 -89 76 -21 44 -17 68 17 87 27 16
37 14 121 -29z m-211 -40 c42 -26 56 -57 43 -93 -22 -56 -90 -60 -142 -7 -35
34 -37 65 -7 97 26 28 63 29 106 3z m-3843 -760 c10 -39 15 -73 12 -76 -8 -8
-717 -107 -723 -101 -9 9 -27 148 -20 154 6 6 628 88 692 92 19 1 24 -9 39
-69z m5570 -684 c-19 -111 -63 -388 -100 -615 -36 -228 -67 -416 -68 -416 -3
-3 -318 72 -322 77 -2 2 34 163 81 358 257 1082 297 1246 302 1254 3 5 35 -96
72 -224 l68 -234 -33 -200z m-5473 484 c51 -52 98 -90 136 -109 75 -38 138
-108 157 -175 8 -28 28 -129 45 -224 17 -95 37 -190 45 -209 18 -42 16 -46
-19 -37 -39 9 -107 75 -146 140 -37 63 -51 77 -62 66 -7 -7 27 -381 34 -387 2
-1 11 -6 21 -12 16 -8 12 -14 -35 -50 -97 -74 -99 -74 -201 8 -47 37 -55 40
-87 32 -19 -4 -88 -7 -154 -6 -113 2 -120 4 -165 33 -26 16 -61 33 -78 36 -20
4 -35 15 -43 33 -73 157 -233 811 -205 839 6 6 607 98 660 101 13 1 48 -28 97
-79z m5547 -654 c1 -5 35 -6 76 -4 l75 5 0 -186 c0 -102 3 -231 5 -286 2 -55
7 -237 10 -405 8 -475 26 -1142 31 -1177 3 -24 10 -33 23 -33 17 0 19 7 15 88
-12 269 -48 2001 -42 2008 11 11 354 34 438 29 52 -3 284 -10 515 -16 812 -20
1368 -38 1376 -46 11 -11 -61 -289 -106 -408 -21 -55 -77 -194 -125 -310 -134
-323 -167 -432 -189 -635 -10 -89 -29 -450 -34 -640 l-2 -85 -1317 -3 -1318
-2 0 64 c0 83 23 264 56 436 20 108 141 645 160 711 4 15 10 15 62 3 76 -18
87 -17 89 4 1 11 29 192 63 403 33 211 70 440 81 509 29 185 31 189 45 80 7
-52 13 -99 13 -104z m-546 147 c73 -14 136 -29 140 -33 4 -4 -26 -148 -67
-321 l-74 -314 -41 -36 c-44 -39 -79 -51 -105 -37 -28 16 -18 60 31 131 26 37
65 116 88 175 23 59 45 115 50 124 8 20 -20 37 -35 22 -5 -5 -29 -62 -53 -125
-26 -68 -61 -139 -85 -171 -22 -30 -46 -74 -53 -97 -11 -38 -10 -44 8 -69 32
-43 65 -50 124 -25 44 19 49 20 45 5 -2 -9 -10 -43 -17 -75 -7 -32 -16 -60
-19 -62 -15 -9 -227 149 -235 175 -16 49 68 490 141 743 7 22 2 22 157 -10z"/>
<path d="M7255 13168 c-86 -16 -182 -99 -159 -136 18 -29 43 -25 84 12 62 56
124 67 222 40 62 -18 88 -10 88 26 0 27 -22 39 -96 55 -77 16 -70 16 -139 3z"/>
<path d="M7352 12918 c-15 -57 4 -178 28 -178 32 0 48 138 21 188 -17 32 -39
27 -49 -10z"/>
<path d="M12320 12053 c-8 -3 -28 -15 -43 -26 -25 -17 -27 -21 -14 -35 13 -13
18 -13 38 2 35 24 87 20 126 -10 28 -21 37 -23 49 -13 13 10 12 14 -3 32 -35
39 -113 65 -153 50z"/>
<path d="M12285 11820 c-30 -58 -12 -177 30 -193 43 -17 69 35 63 123 -7 93
-60 134 -93 70z"/>
<path d="M12535 11240 c-47 -33 -161 -74 -257 -90 -56 -10 -68 -15 -68 -31 0
-23 14 -24 116 -3 95 20 161 44 232 87 53 32 64 50 36 61 -9 3 -16 6 -17 5 -1
0 -20 -13 -42 -29z"/>
<path d="M6465 10229 c-4 -6 -5 -12 -2 -15 2 -3 7 2 10 11 7 17 1 20 -8 4z"/>
<path d="M12871 7426 c-11 -13 -8 -22 17 -53 17 -21 48 -55 70 -76 34 -34 40
-36 52 -22 11 13 4 24 -45 78 -32 34 -64 68 -70 75 -10 11 -14 10 -24 -2z"/>
<path d="M12587 5433 c-11 -18 -56 -186 -52 -193 2 -4 55 -13 117 -19 62 -7
125 -14 141 -17 22 -5 27 -2 27 15 0 24 -5 25 -140 41 -52 6 -95 12 -96 13 -1
1 9 37 21 79 12 43 20 80 17 83 -8 8 -30 6 -35 -2z"/>
<path d="M13327 5425 c-4 -8 -2 -17 3 -20 5 -3 150 -18 322 -32 172 -14 316
-29 320 -32 9 -8 59 -224 53 -229 -4 -5 -107 6 -652 69 -400 46 -393 45 -393
20 0 -15 10 -19 58 -24 31 -4 277 -31 546 -62 269 -30 491 -53 493 -51 4 4
-58 306 -63 315 -3 3 -626 60 -665 61 -9 0 -19 -7 -22 -15z"/>
</g>
</svg>
