<?xml version="1.0" standalone="no"?>
<!DOCTYPE svg PUBLIC "-//W3C//DTD SVG 20010904//EN"
 "http://www.w3.org/TR/2001/REC-SVG-20010904/DTD/svg10.dtd">
<svg version="1.0" xmlns="http://www.w3.org/2000/svg"
 width="2000.000000pt" height="2000.000000pt" viewBox="0 0 2000.000000 2000.000000"
 preserveAspectRatio="xMidYMid meet">

<g transform="translate(0.000000,2000.000000) scale(0.100000,-0.100000)"
fill="#000000" stroke="none">
<path d="M13201 18414 c-132 -35 -260 -140 -299 -246 -19 -50 -22 -53 -63 -61
-24 -5 -82 -20 -129 -33 -245 -73 -372 -188 -339 -308 33 -119 265 -232 569
-277 61 -9 98 -21 130 -41 72 -46 163 -70 265 -71 105 0 182 19 272 69 34 19
72 34 85 34 38 0 248 46 317 70 222 75 334 183 302 291 -19 63 -83 124 -175
169 -75 36 -197 76 -291 97 -36 8 -42 14 -71 74 -75 156 -242 250 -439 248
-44 0 -104 -7 -134 -15z m311 -50 c119 -46 213 -141 242 -244 52 -184 -35
-269 -295 -290 -137 -11 -315 0 -399 26 -101 30 -160 120 -145 218 22 140 136
256 295 302 63 19 241 12 302 -12z m-638 -345 c16 -122 81 -184 224 -215 90
-19 393 -19 484 0 145 31 210 92 224 211 l7 57 36 -7 c60 -11 223 -66 274 -92
60 -30 131 -94 147 -133 55 -132 -221 -276 -625 -325 -192 -24 -537 -17 -710
14 -160 29 -254 55 -351 101 -283 131 -225 293 145 407 58 17 113 32 122 33
12 0 18 -13 23 -51z m670 -561 c-12 -19 -124 -42 -204 -42 -78 1 -193 24 -204
42 -2 4 90 7 204 7 114 0 206 -3 204 -7z"/>
<path d="M12687 18000 c-57 -17 -74 -52 -39 -83 52 -47 162 -25 162 33 0 36
-72 65 -123 50z m77 -51 c10 -9 -34 -22 -60 -17 -9 1 -19 8 -21 15 -8 22 58
24 81 2z"/>
<path d="M13992 17948 c-34 -17 -40 -57 -12 -80 28 -23 107 -24 138 -2 69 48
-43 122 -126 82z m92 -34 c27 -10 7 -24 -34 -24 -60 0 -63 27 -3 29 12 1 28
-2 37 -5z"/>
<path d="M12633 17800 c-82 -49 -31 -140 77 -140 85 0 132 43 116 106 -13 51
-131 72 -193 34z m138 -30 c10 -6 19 -19 19 -30 0 -42 -99 -56 -141 -20 l-24
20 24 20 c26 22 89 27 122 10z"/>
<path d="M13675 17764 c-36 -19 -45 -31 -45 -67 0 -85 228 -92 255 -8 21 69
-123 121 -210 75z m154 -41 l24 -16 -23 -19 c-41 -33 -160 -20 -160 18 0 34
117 47 159 17z"/>
<path d="M13112 17710 c-42 -10 -82 -47 -82 -76 0 -51 94 -93 175 -78 46 8 95
49 95 78 0 31 -40 66 -87 77 -44 10 -56 10 -101 -1z m133 -61 c20 -20 20 -20
1 -34 -31 -23 -98 -29 -139 -11 -54 22 -47 45 23 70 28 10 95 -5 115 -25z"/>
<path d="M7864 17900 l-70 -69 -85 19 c-130 30 -126 34 -74 -70 l46 -91 -51
-86 c-28 -47 -49 -87 -47 -90 2 -2 48 2 101 9 l98 12 68 -74 c76 -83 72 -84
90 25 7 39 14 77 16 86 2 8 45 33 94 55 49 21 90 41 90 44 0 3 -37 25 -83 49
-45 25 -85 49 -89 55 -3 5 -10 52 -13 103 -4 51 -10 93 -14 93 -3 0 -38 -31
-77 -70z m56 -73 c0 -73 8 -86 71 -118 33 -16 59 -31 59 -34 0 -3 -29 -18 -64
-34 l-63 -29 -13 -66 c-7 -36 -15 -66 -19 -66 -3 0 -26 22 -51 49 l-45 50 -64
-10 c-35 -5 -66 -7 -68 -5 -3 2 10 31 29 64 l33 61 -28 55 c-15 31 -27 60 -27
65 0 5 29 2 65 -6 l66 -15 52 45 c29 25 55 43 60 40 4 -2 7 -23 7 -46z"/>
<path d="M9882 17599 c-34 -5 -99 -23 -142 -39 -478 -174 -660 -753 -366
-1165 102 -142 267 -256 436 -301 101 -27 293 -25 395 4 166 48 321 157 421
297 293 412 112 991 -364 1165 -125 45 -246 58 -380 39z m303 -54 c33 -9 98
-35 145 -58 70 -34 102 -58 181 -136 78 -79 102 -111 136 -181 61 -124 77
-194 77 -330 0 -135 -16 -208 -73 -325 -89 -180 -249 -313 -451 -377 -62 -19
-97 -23 -200 -23 -103 0 -138 4 -200 23 -202 64 -364 198 -450 377 -58 119
-74 191 -74 325 0 136 16 206 77 330 33 69 59 103 132 176 121 122 238 185
397 214 71 12 229 5 303 -15z"/>
<path d="M10035 17346 c-127 -57 -121 -241 10 -291 77 -30 158 2 196 76 51
101 -14 217 -128 226 -28 2 -61 -3 -78 -11z m120 -38 c97 -44 74 -204 -33
-224 -65 -12 -142 50 -142 114 0 88 94 147 175 110z"/>
<path d="M9519 17051 c-21 -22 -29 -39 -29 -66 0 -51 44 -95 95 -95 51 0 95
44 95 95 0 51 -44 95 -95 95 -27 0 -44 -8 -66 -29z m103 -28 c36 -33 13 -93
-37 -93 -30 0 -55 25 -55 55 0 49 55 72 92 38z"/>
<path d="M10531 16996 c-57 -32 -68 -111 -22 -157 63 -63 171 -20 171 68 -1
78 -81 127 -149 89z m91 -43 c50 -45 -6 -133 -65 -102 -28 15 -37 28 -37 58 0
53 62 80 102 44z"/>
<path d="M9824 16630 c-50 -20 -71 -101 -39 -147 20 -29 75 -46 107 -34 33 12
68 57 68 87 0 73 -69 121 -136 94z m74 -46 c42 -29 16 -104 -36 -104 -15 0
-62 44 -62 58 0 18 42 62 59 62 9 0 27 -7 39 -16z"/>
<path d="M10271 16404 c-27 -35 -26 -59 4 -89 45 -46 115 -19 115 45 0 65 -79
94 -119 44z m74 -44 c0 -18 -6 -26 -23 -28 -24 -4 -38 18 -28 44 3 9 15 14 28
12 17 -2 23 -10 23 -28z"/>
<path d="M11992 17393 l-72 -66 -83 17 c-45 10 -90 20 -99 22 -13 4 -7 -16 28
-90 l45 -96 -51 -86 c-28 -47 -50 -87 -48 -89 2 -1 47 4 100 11 l97 14 50 -53
c27 -28 58 -63 69 -77 24 -29 23 -31 46 90 9 46 19 87 24 90 4 4 42 22 85 41
43 18 80 37 83 41 3 4 -28 25 -68 46 -105 57 -105 56 -113 161 -4 50 -10 91
-14 91 -3 -1 -39 -31 -79 -67z m61 -83 c3 -33 10 -66 16 -74 6 -7 33 -23 61
-36 27 -13 50 -27 50 -31 0 -4 -29 -19 -64 -34 l-64 -27 -7 -52 c-13 -93 -15
-94 -69 -36 l-48 51 -69 -8 c-38 -5 -69 -7 -69 -5 0 2 14 30 32 62 l31 58 -27
62 c-14 35 -25 65 -22 67 2 2 32 -3 67 -11 l64 -15 49 49 c27 27 53 47 56 45
4 -3 10 -32 13 -65z"/>
<path d="M15595 17115 c-54 -86 -104 -154 -109 -151 -132 53 -328 127 -331
124 -2 -2 0 -64 5 -138 5 -74 9 -155 10 -180 l0 -46 -175 -44 c-96 -25 -175
-47 -175 -50 0 -3 52 -68 115 -144 l114 -140 -37 -45 c-20 -25 -72 -88 -115
-140 -43 -52 -75 -97 -70 -101 4 -4 82 -26 173 -49 91 -23 167 -44 169 -47 2
-2 -1 -83 -7 -181 -6 -98 -9 -179 -7 -181 1 -2 78 26 170 62 92 37 168 66 170
66 2 0 40 -57 84 -127 44 -71 89 -141 99 -156 l19 -28 93 148 c51 81 96 152
100 156 4 4 82 -22 175 -58 92 -36 169 -64 172 -62 2 2 -1 76 -7 163 -5 87
-10 168 -10 180 0 19 18 26 168 64 92 24 171 46 175 50 5 4 -26 50 -69 101
-43 52 -94 114 -115 139 l-37 45 114 140 c63 76 114 142 114 145 0 3 -79 25
-176 50 l-176 45 6 105 c4 58 9 140 12 183 3 42 2 77 -3 77 -4 0 -82 -29 -172
-65 -91 -36 -167 -61 -170 -57 -3 5 -48 75 -99 155 -52 81 -95 147 -96 147 -1
0 -47 -70 -101 -155z m266 -324 c326 -124 413 -540 163 -786 -83 -82 -213
-135 -329 -135 -211 0 -405 154 -460 365 -62 241 91 501 336 570 75 21 216 14
290 -14z"/>
<path d="M6795 16870 c-405 -56 -752 -361 -904 -794 -71 -202 -105 -487 -90
-748 27 -474 189 -815 453 -950 l39 -20 -5 -63 c-7 -79 -51 -166 -127 -248
-75 -81 -134 -124 -371 -271 -479 -299 -659 -465 -720 -664 -78 -251 90 -532
349 -583 163 -32 340 19 555 160 138 90 307 143 462 143 119 1 196 -21 245
-71 58 -57 59 -87 10 -244 -84 -268 -92 -419 -25 -520 45 -68 141 -93 250 -66
33 9 44 16 42 28 -3 12 -11 15 -33 11 -17 -3 -60 -5 -97 -5 -78 0 -112 19
-143 81 -32 63 -27 208 13 354 17 63 38 133 48 155 9 22 17 68 17 102 1 143
-112 215 -333 214 -164 -1 -335 -55 -492 -157 -177 -114 -319 -161 -461 -151
-143 10 -269 92 -332 217 -70 140 -74 258 -11 385 72 147 269 320 596 525 306
192 365 234 442 311 93 95 147 193 155 288 5 50 9 61 21 56 8 -3 47 -8 87 -12
382 -32 912 384 1192 935 238 469 189 1011 -120 1339 -159 167 -341 252 -572
267 -44 2 -107 1 -140 -4z m259 -51 c413 -74 711 -511 682 -1001 -22 -381
-215 -753 -563 -1088 -278 -268 -569 -396 -795 -349 -316 66 -528 463 -542
1016 -15 608 199 1067 612 1313 183 108 396 147 606 109z"/>
<path d="M13605 15743 c-188 -41 -428 -167 -680 -359 -162 -123 -194 -156
-292 -299 -49 -71 -258 -375 -463 -675 -206 -300 -399 -581 -430 -625 l-56
-80 -214 -13 c-117 -6 -215 -10 -218 -8 -2 3 61 80 142 171 152 172 186 226
230 357 35 105 43 186 21 231 -9 20 -27 39 -38 43 -68 22 -189 -24 -321 -122
-80 -60 -44 -12 -673 -904 l-63 -88 115 -91 c64 -51 121 -94 128 -96 6 -3 59
49 116 115 71 82 109 119 120 116 9 -3 99 -24 201 -47 102 -23 187 -43 189
-45 2 -2 -11 -22 -28 -46 -17 -23 -31 -47 -31 -53 0 -6 -27 -80 -60 -165 -33
-85 -60 -159 -60 -165 1 -9 267 -224 380 -307 l37 -28 144 98 c79 53 163 116
187 139 l43 41 92 -184 c67 -135 89 -188 82 -198 -6 -8 -47 -67 -93 -131 -46
-65 -81 -119 -79 -121 2 -2 57 -46 123 -98 l119 -95 21 22 c12 12 179 203 372
424 369 422 395 457 440 603 43 139 36 231 -19 260 -36 20 -112 5 -197 -40
-137 -72 -193 -126 -337 -327 -71 -100 -132 -184 -135 -187 -3 -3 -23 89 -44
204 l-39 209 25 29 c23 28 585 654 1002 1117 l208 230 68 140 c79 161 149 350
192 515 39 150 49 330 24 408 -33 99 -136 150 -251 125z m-129 -434 c148 -116
271 -215 272 -221 8 -19 -75 -238 -139 -369 l-67 -136 -224 -249 c-123 -137
-385 -429 -583 -649 -839 -934 -776 -867 -794 -852 -9 8 -124 99 -256 202
-132 103 -246 193 -253 200 -11 10 48 101 319 496 183 266 481 700 662 964
181 264 341 493 356 509 61 66 401 316 430 316 5 0 130 -95 277 -211z m-2015
-1045 c60 -47 109 -88 109 -90 0 -3 -14 -33 -31 -67 -23 -44 -111 -153 -306
-374 -150 -172 -278 -315 -284 -318 -5 -4 -48 24 -96 62 -48 37 -93 73 -101
79 -11 8 23 63 178 285 292 416 308 437 357 474 25 19 50 35 55 35 5 0 59 -39
119 -86z m1475 -1160 c60 -48 110 -88 112 -89 2 -2 -11 -31 -27 -66 -24 -50
-94 -137 -312 -384 -155 -176 -286 -319 -291 -317 -5 1 -52 36 -104 78 l-95
76 17 26 c10 15 90 131 179 257 89 127 192 273 228 325 56 79 155 180 178 180
3 0 55 -39 115 -86z"/>
<path d="M12890 15068 c-38 -19 -93 -84 -348 -408 -167 -212 -310 -399 -318
-417 -71 -161 105 -402 322 -442 97 -19 179 9 238 81 109 133 580 737 592 760
8 15 14 55 14 90 0 124 -92 253 -227 320 -56 27 -81 34 -148 36 -68 3 -87 0
-125 -20z m247 -48 c77 -35 155 -111 188 -182 31 -67 34 -149 6 -193 -48 -76
-600 -762 -628 -781 -114 -76 -324 9 -418 170 -33 57 -45 150 -23 192 8 16 99
137 203 269 445 566 422 539 490 556 47 11 114 0 182 -31z"/>
<path d="M12937 14920 c-78 -20 -143 -75 -173 -146 -19 -44 -18 -136 2 -182
46 -111 180 -175 291 -138 120 40 184 142 168 272 -18 137 -152 227 -288 194z
m3 -60 c-144 -49 -183 -210 -75 -309 120 -110 303 -30 306 134 1 47 1 48 9 16
20 -85 -50 -186 -147 -210 -193 -49 -327 200 -181 336 29 28 85 52 118 52 16
0 6 -7 -30 -19z m110 -48 c74 -37 102 -131 60 -200 -95 -155 -329 -30 -250
133 37 76 117 104 190 67z"/>
<path d="M12572 14481 c-103 -36 -169 -135 -159 -241 12 -134 106 -222 239
-222 72 0 135 29 181 83 83 96 76 250 -14 336 -65 61 -152 77 -247 44z m30
-50 c-97 -33 -138 -96 -130 -196 10 -121 134 -196 246 -150 62 26 112 86 112
134 0 11 4 23 10 26 13 8 2 -51 -16 -87 -21 -40 -83 -86 -131 -96 -154 -33
-287 122 -228 266 9 20 26 48 38 61 27 29 93 61 127 60 17 0 7 -6 -28 -18z
m113 -47 c91 -43 106 -166 30 -233 -64 -56 -147 -50 -205 15 -25 30 -30 43
-30 89 0 47 4 59 32 91 18 20 41 40 52 44 34 14 86 11 121 -6z"/>
<path d="M17005 15310 c-11 -12 -45 -44 -76 -71 l-57 -49 -93 19 c-52 11 -95
18 -97 17 -1 -2 16 -44 39 -94 l41 -90 -50 -86 c-59 -99 -63 -95 74 -75 l77
12 71 -78 72 -78 13 84 c17 106 25 126 51 134 11 4 53 21 92 39 l70 33 -90 49
-91 48 -7 56 c-3 30 -9 77 -12 104 l-7 48 -20 -22z m0 -140 l7 -70 59 -31 c32
-18 59 -35 59 -38 0 -4 -28 -20 -62 -36 -61 -29 -63 -32 -70 -75 -17 -103 -14
-102 -67 -41 l-48 54 -71 -9 c-40 -6 -72 -8 -72 -5 0 3 16 32 34 65 l34 58
-29 61 c-16 34 -27 62 -25 64 2 2 34 -2 70 -8 l67 -13 47 47 c26 26 50 47 53
47 4 0 10 -31 14 -70z"/>
<path d="M8660 15228 c-13 -46 -27 -90 -31 -100 -5 -9 -46 -28 -91 -43 -46
-15 -87 -31 -91 -35 -5 -4 28 -33 72 -64 l80 -57 3 -100 3 -100 81 60 81 61
88 -30 c49 -17 92 -30 97 -30 4 0 -8 43 -26 95 l-33 96 58 79 c33 44 59 83 59
86 0 3 -45 3 -99 -1 l-99 -6 -62 86 c-34 47 -63 85 -64 85 -1 0 -13 -37 -26
-82z"/>
<path d="M15395 14534 c-322 -47 -597 -239 -735 -514 -46 -92 -86 -217 -95
-296 -7 -57 -9 -61 -49 -83 -226 -128 -366 -268 -366 -366 0 -117 116 -170
392 -182 l148 -6 53 -71 c135 -179 303 -291 533 -358 111 -32 349 -32 468 1
169 45 319 131 437 250 168 169 254 354 281 606 l12 110 85 55 c107 68 213
168 240 224 12 23 21 62 21 85 0 37 -6 49 -38 81 -60 60 -141 81 -341 87
l-165 6 -80 82 c-128 130 -284 221 -453 266 -76 20 -276 33 -348 23z m121 -61
c-8 -16 -172 -287 -364 -603 l-349 -575 -81 -3 -81 -3 -10 38 c-23 88 -31 131
-31 183 0 57 26 107 430 829 20 35 37 49 85 71 122 54 255 87 363 89 l53 1
-15 -27z m331 -38 c37 -14 101 -47 142 -72 74 -46 221 -176 221 -195 0 -6
-132 -140 -292 -300 -219 -217 -282 -284 -248 -265 25 13 180 101 345 195 165
94 305 171 310 172 9 2 43 -53 45 -72 0 -4 -40 -53 -89 -110 l-89 -103 -133
-59 c-177 -79 -434 -167 -644 -222 -201 -52 -200 -52 -184 -21 10 18 6 17 -23
-9 -30 -27 -50 -33 -146 -49 -60 -9 -114 -16 -120 -14 -8 3 824 1149 834 1149
2 0 34 -11 71 -25z m811 -339 c75 -24 122 -68 122 -115 0 -235 -871 -647
-1680 -795 -526 -96 -908 -62 -912 82 -1 41 40 108 101 165 52 48 240 177 260
177 29 0 5 -42 -55 -95 -84 -74 -111 -128 -91 -178 64 -152 643 -101 1299 113
212 69 331 117 492 197 203 101 319 190 352 270 12 28 12 38 0 67 -18 43 -59
65 -150 80 -54 9 -73 17 -85 35 l-15 24 154 -6 c104 -3 172 -10 208 -21z
m-226 -77 c21 -5 50 -20 65 -33 25 -21 26 -25 14 -53 -7 -17 -27 -45 -45 -62
l-32 -31 -35 87 c-19 48 -35 90 -37 95 -5 11 25 10 70 -3z m-1872 -531 c0 -23
24 -144 36 -180 5 -17 2 -19 -33 -12 -61 10 -120 40 -128 63 -8 27 13 62 68
114 47 43 57 46 57 15z m1854 -50 c-4 -24 -18 -79 -32 -123 -111 -359 -429
-615 -797 -642 l-80 -5 25 24 c14 14 151 137 305 274 154 137 347 308 428 381
82 73 151 133 153 133 2 0 1 -19 -2 -42z m-494 -74 c0 -3 -128 -157 -285 -344
l-284 -338 -59 13 c-101 24 -278 105 -298 136 -4 8 112 288 131 317 2 2 69 18
151 36 193 43 348 87 504 140 137 48 140 48 140 40z m-1006 -318 c-37 -42 -71
-76 -75 -76 -13 0 -79 86 -79 104 0 9 7 19 15 22 17 7 198 31 204 27 2 -1 -27
-36 -65 -77z"/>
<path d="M7911 13995 c-80 -18 -182 -65 -238 -111 l-42 -35 -148 -3 c-201 -4
-369 -44 -387 -93 -16 -40 51 -90 135 -100 27 -3 49 -8 49 -11 0 -3 -10 -26
-22 -50 -19 -41 -20 -48 -7 -71 24 -42 55 -52 142 -48 l77 4 0 -50 c0 -65 24
-157 62 -231 42 -83 154 -193 235 -231 l63 -30 0 -307 0 -308 -114 0 c-83 0
-117 -4 -125 -13 -6 -8 -8 -17 -4 -20 3 -4 69 -7 145 -7 l138 0 0 321 0 321
28 -6 c15 -3 44 -8 65 -12 l37 -6 0 -309 0 -310 123 3 c100 3 122 6 122 18 0
12 -19 16 -102 18 l-103 3 0 288 0 288 79 15 c117 23 203 69 286 153 80 79
127 161 150 256 73 311 -117 607 -430 674 -85 18 -130 18 -214 0z m269 -55
c114 -35 232 -133 289 -239 174 -327 -35 -719 -404 -757 -284 -29 -558 215
-554 495 l1 66 11 -39 c13 -41 48 -74 82 -77 46 -4 63 3 103 37 l42 36 6 -32
c9 -41 37 -61 73 -50 39 11 111 60 111 76 0 25 -16 23 -61 -7 -24 -16 -53 -28
-64 -27 -18 3 -20 11 -20 101 0 53 -1 97 -2 97 -2 0 -14 -23 -28 -50 -27 -54
-86 -124 -118 -141 -27 -15 -76 7 -84 39 -3 13 -1 44 4 68 6 24 8 44 6 44 -3
0 -18 -9 -33 -20 -66 -47 -203 -67 -245 -36 -16 12 -17 17 -6 44 7 17 30 50
52 73 21 23 39 43 39 43 0 1 -33 1 -73 1 -77 0 -167 27 -167 50 0 34 200 75
365 75 79 0 109 -5 145 -21 65 -29 142 -92 191 -155 43 -56 69 -69 69 -34 0
25 -153 182 -204 207 l-38 20 38 32 c123 101 308 133 474 81z"/>
<path d="M8225 13785 c-50 -49 -24 -130 46 -141 80 -13 126 90 64 143 -35 30
-79 30 -110 -2z"/>
<path d="M8530 13785 c0 -14 101 -300 109 -308 7 -7 211 219 219 242 2 5 -61
21 -140 35 -79 15 -153 30 -165 33 -13 3 -23 2 -23 -2z m142 -60 c40 -8 83
-17 96 -20 l23 -6 -30 -37 c-69 -84 -100 -116 -106 -111 -7 7 -65 170 -65 181
0 10 -3 10 82 -7z"/>
<path d="M14058 12663 l-66 -66 -98 21 c-54 11 -100 19 -102 17 -2 -1 15 -39
37 -84 23 -44 41 -87 41 -95 0 -9 -20 -50 -45 -92 -25 -41 -45 -79 -45 -83 0
-4 44 -1 98 6 l97 14 71 -77 c81 -88 72 -92 95 48 l13 76 95 44 96 44 -92 49
-91 50 -7 65 c-8 89 -16 130 -24 130 -3 0 -36 -30 -73 -67z"/>
<path d="M10595 12200 c-133 -18 -238 -71 -335 -169 -187 -189 -241 -498 -138
-791 115 -327 464 -667 763 -745 66 -17 173 -20 222 -6 l32 9 37 -74 c45 -92
107 -157 178 -190 54 -25 95 -33 258 -54 115 -14 173 -36 225 -86 36 -34 43
-47 43 -80 0 -92 -100 -201 -326 -355 -226 -154 -296 -250 -297 -409 -1 -130
64 -236 185 -300 54 -29 75 -35 148 -38 193 -9 295 73 460 366 169 301 195
343 241 401 91 112 202 162 321 143 107 -16 166 -50 276 -155 115 -109 143
-121 217 -88 43 19 65 44 51 58 -4 4 -27 -3 -51 -15 -25 -12 -55 -22 -66 -22
-12 0 -60 38 -118 94 -135 129 -197 159 -337 164 -93 4 -107 2 -159 -21 -117
-54 -197 -154 -360 -452 -192 -350 -281 -435 -455 -435 -125 0 -230 64 -288
175 -37 72 -38 178 -1 255 34 72 114 150 240 235 257 173 358 287 359 401 0
110 -115 181 -341 209 -66 8 -137 19 -157 25 -56 15 -127 64 -163 112 -29 39
-84 148 -77 152 28 16 89 66 111 90 225 255 221 895 -9 1242 -163 246 -438
386 -689 354z m210 -52 c170 -36 362 -184 465 -356 50 -85 103 -230 125 -343
23 -117 30 -325 16 -433 -25 -185 -100 -354 -190 -425 -189 -150 -485 -61
-776 233 -213 215 -319 427 -332 666 -7 139 13 247 67 357 121 246 356 358
625 301z"/>
<path d="M15646 12145 c-134 -48 -194 -198 -132 -332 80 -172 335 -172 420 -1
96 192 -88 404 -288 333z m152 -40 c49 -21 81 -52 103 -100 51 -109 -4 -235
-120 -274 -181 -60 -331 165 -209 314 57 68 148 92 226 60z"/>
<path d="M15216 12050 c-34 -11 -82 -54 -102 -92 -22 -43 -18 -115 11 -164 28
-48 91 -84 146 -84 47 1 112 32 137 67 100 140 -28 322 -192 273z m121 -50
c45 -27 66 -64 66 -115 0 -51 -21 -88 -66 -115 -86 -53 -197 12 -197 115 0
103 111 168 197 115z"/>
<path d="M16343 11945 c-124 -34 -213 -108 -270 -223 -37 -73 -38 -80 -38
-182 0 -102 1 -109 38 -182 131 -265 474 -317 677 -102 60 63 95 135 109 222
46 290 -233 543 -516 467z m262 -64 c292 -136 290 -545 -3 -684 -60 -29 -77
-32 -157 -32 -76 0 -99 4 -147 27 -80 37 -152 107 -191 187 -30 61 -32 73 -32
166 0 93 2 104 31 160 31 59 106 139 155 165 107 58 235 62 344 11z"/>
<path d="M14953 11682 c-8 -20 -32 -84 -53 -142 -33 -92 -193 -519 -221 -591
l-10 -26 -105 39 c-94 34 -109 37 -144 28 -21 -6 -48 -21 -58 -35 -11 -13 -48
-101 -83 -195 -35 -93 -67 -170 -71 -170 -4 0 -152 54 -328 120 -353 132 -388
140 -450 98 -52 -36 -73 -71 -77 -130 -6 -78 24 -124 104 -163 l62 -30 3 -275
c3 -259 5 -278 27 -333 26 -66 112 -166 175 -201 63 -36 898 -346 958 -355 73
-12 142 -4 213 26 93 38 88 38 108 -9 25 -63 73 -118 103 -118 13 0 41 15 63
35 l39 36 16 -54 c39 -136 158 -312 237 -353 41 -21 86 -18 101 6 19 29 24 25
38 -27 20 -83 72 -195 108 -235 28 -32 41 -38 73 -38 42 0 62 20 74 75 16 70
15 70 52 9 118 -195 258 -312 414 -343 64 -13 101 -4 119 29 16 29 0 92 -61
242 -27 66 -73 197 -104 291 -147 450 -195 574 -275 708 -52 88 -128 179 -179
216 -39 27 -55 51 -28 40 8 -3 36 -1 63 4 54 10 84 37 84 75 0 13 2 24 4 24 3
0 25 -13 49 -30 86 -58 188 -100 242 -100 56 0 67 5 83 36 12 23 5 59 -22 112
-21 40 -20 45 3 33 34 -19 166 -51 249 -61 58 -8 107 -8 157 -1 128 18 245 85
245 139 -1 51 -25 69 -256 190 -93 49 -223 123 -290 164 -416 261 -647 357
-854 358 -92 0 -173 -20 -248 -62 l-57 -31 -63 23 c-35 13 -66 29 -68 35 -3 6
61 186 142 399 80 213 145 389 143 391 -2 2 -87 35 -189 73 -102 39 -198 75
-213 81 -27 10 -29 9 -44 -27z m139 -307 c114 -42 172 -68 170 -77 -9 -33
-186 -504 -193 -512 -8 -9 -316 98 -346 119 -12 9 2 54 84 273 54 144 101 262
105 262 3 0 84 -29 180 -65z m-262 -555 c205 -76 379 -145 387 -152 31 -25 35
-58 14 -118 -33 -94 -9 -144 89 -187 30 -14 63 -32 73 -40 23 -21 22 -70 -3
-127 l-19 -46 -38 15 c-21 8 -271 102 -556 209 -286 107 -521 196 -523 198 -5
6 123 337 138 355 11 14 42 31 59 32 4 1 174 -62 379 -139z m-338 -381 c529
-199 975 -368 990 -375 35 -18 57 -52 65 -99 l6 -38 -34 6 c-19 4 -131 10
-248 13 l-215 7 -770 289 c-424 158 -788 295 -808 304 -52 23 -79 55 -85 103
-11 79 40 141 124 150 6 0 445 -161 975 -360z m1288 282 c137 -46 327 -143
545 -277 105 -64 266 -157 359 -206 206 -108 228 -123 224 -151 -4 -31 -115
-85 -202 -99 -126 -21 -349 28 -516 112 l-62 31 64 -78 c35 -43 72 -98 83
-122 19 -43 19 -43 0 -58 -13 -9 -31 -12 -54 -8 -54 10 -177 76 -279 150 -75
54 -96 64 -107 55 -12 -10 -9 -19 21 -53 43 -51 52 -83 31 -105 -25 -24 -136
-21 -224 6 -73 23 -73 23 -79 64 -9 56 -61 111 -124 134 -28 10 -50 21 -50 26
0 4 8 27 19 50 33 77 44 113 44 145 1 20 5 30 11 25 6 -3 31 -19 54 -35 54
-37 133 -67 173 -67 82 0 179 112 179 209 0 37 -26 23 -39 -21 -27 -92 -83
-148 -148 -148 -59 0 -194 82 -300 184 -24 22 -43 37 -43 33 0 -4 16 -36 35
-73 46 -86 46 -98 -2 -73 -21 10 -55 25 -75 33 -23 9 -43 26 -53 46 -15 29
-15 35 1 82 10 31 15 68 12 97 -5 47 -4 48 36 71 82 47 142 60 261 57 91 -3
126 -9 205 -36z m-1515 -513 c369 -138 674 -255 680 -260 5 -4 -24 -8 -65 -9
-41 0 -86 -2 -100 -4 -14 -2 -90 -9 -170 -15 -80 -7 -149 -14 -153 -17 -20
-12 131 -239 204 -308 86 -81 164 -103 227 -65 l32 20 9 -22 c37 -100 37 -99
16 -114 -71 -52 -225 -71 -320 -39 -27 10 -234 87 -460 172 -480 180 -494 188
-560 317 l-40 78 -3 266 c-3 252 -2 264 15 257 10 -4 320 -120 688 -257z
m1200 -308 c186 -21 263 -51 360 -142 135 -126 218 -292 355 -708 54 -162 125
-365 158 -450 71 -185 78 -212 58 -229 -19 -16 -99 -1 -172 33 -128 60 -314
299 -379 488 -5 15 -10 -19 -14 -98 -5 -90 -11 -127 -24 -147 -21 -33 -31 -34
-62 -3 -46 47 -98 173 -130 321 -23 108 -23 107 -38 103 -7 -3 -15 -32 -19
-68 -4 -35 -14 -70 -22 -78 -70 -70 -269 215 -302 433 -3 25 -9 45 -13 45 -3
0 -19 -25 -35 -56 -31 -58 -66 -90 -90 -81 -22 9 -80 137 -128 280 l-42 129
-13 -39 c-15 -45 -55 -83 -86 -83 -44 1 -103 38 -164 103 -61 66 -151 202
-140 213 7 8 134 21 297 33 178 12 539 13 645 1z"/>
<path d="M14770 10717 c-50 -17 -74 -36 -100 -80 -29 -49 -25 -128 10 -177 26
-36 90 -70 135 -70 45 0 109 34 135 70 30 42 38 125 17 166 -23 44 -67 81
-112 93 -46 13 -40 13 -85 -2z m94 -88 c39 -31 49 -63 32 -104 -16 -37 -42
-55 -81 -55 -39 0 -65 18 -81 55 -9 24 -11 42 -5 58 12 32 58 67 86 67 12 0
34 -10 49 -21z"/>
<path d="M14870 9776 c0 -22 104 -110 172 -146 76 -41 137 -44 174 -9 l26 24
30 -35 c131 -150 156 -164 203 -114 l24 26 17 -59 c36 -126 94 -202 157 -204
67 -4 104 4 152 29 27 15 51 35 53 45 5 24 -18 21 -74 -10 -56 -31 -128 -36
-167 -10 -46 30 -99 176 -113 315 -8 75 -20 87 -29 30 -9 -59 -51 -148 -69
-148 -16 0 -83 72 -169 183 -33 42 -60 77 -61 77 0 0 1 -27 2 -59 3 -52 1 -61
-18 -71 -43 -23 -123 12 -230 100 -61 52 -80 60 -80 36z"/>
<path d="M4515 11685 c-307 -69 -399 -205 -290 -431 19 -40 35 -75 35 -78 0
-3 -15 -6 -33 -6 -66 0 -152 -22 -186 -47 -28 -21 -45 -26 -100 -27 -83 -1
-142 -30 -217 -104 -61 -60 -100 -129 -116 -206 -10 -53 -11 -54 -103 -115
-194 -128 -400 -329 -518 -504 -69 -102 -142 -252 -174 -354 -25 -82 -27 -101
-27 -268 -1 -163 2 -190 26 -286 32 -127 73 -233 139 -358 74 -141 149 -239
289 -374 112 -109 199 -211 188 -222 -2 -3 -38 7 -79 22 -140 49 -302 32 -464
-49 -230 -115 -394 -288 -439 -464 -61 -237 66 -538 287 -683 57 -37 87 -72
87 -102 0 -5 -16 -50 -35 -100 -52 -133 -65 -193 -66 -304 -1 -366 254 -635
628 -662 l81 -6 47 -176 c67 -249 149 -536 195 -676 21 -66 41 -146 45 -178
19 -166 119 -346 245 -441 33 -24 65 -46 72 -49 28 -10 -8 -19 -203 -53 -253
-43 -410 -78 -457 -101 -32 -16 -50 -43 -142 -209 l-105 -191 -175 -6 c-199
-7 -293 -18 -429 -53 -184 -46 -294 -121 -432 -291 -68 -86 -88 -122 -121
-219 -21 -62 -23 -87 -23 -244 0 -172 1 -176 34 -273 100 -289 270 -395 956
-593 52 -15 93 -29 91 -31 -2 -2 -62 7 -132 21 -248 48 -484 56 -613 20 -58
-17 -88 -33 -139 -76 l-33 -28 -550 0 c-436 0 -550 -3 -547 -12 4 -10 122 -14
537 -16 419 -2 532 -5 527 -15 -49 -116 -49 -263 0 -367 82 -174 242 -271 529
-320 164 -28 289 -35 595 -34 284 1 452 15 668 54 59 11 110 20 114 20 3 0 9
-19 13 -42 18 -113 97 -218 203 -270 l67 -33 1367 -3 c1359 -2 1368 -2 1388
18 39 39 12 111 -45 122 -15 2 -24 18 -37 68 -9 36 -17 84 -17 108 -1 41 0 42
33 42 25 0 40 7 55 26 l20 25 203 -40 c415 -82 706 -108 1072 -97 438 13 686
75 828 204 158 145 197 322 113 515 -7 16 108 17 2333 17 l2339 0 52 -70 c89
-119 230 -214 382 -257 92 -26 415 -25 509 0 151 42 291 136 380 256 l53 71
958 0 c846 0 959 2 959 15 0 13 -112 15 -950 15 -522 0 -950 2 -950 4 0 2 9
26 21 52 45 106 49 158 49 645 l0 459 -275 0 c-151 0 -275 4 -275 9 0 5 7 25
16 46 10 25 20 35 30 31 8 -3 63 -11 122 -17 94 -10 114 -10 166 5 155 45 226
147 176 250 -35 73 -104 93 -198 58 -86 -33 -196 -122 -229 -185 -28 -56 -21
-20 22 109 24 72 55 187 70 255 14 68 27 124 28 126 2 1 39 -10 82 -24 118
-39 238 -39 318 0 72 36 107 83 107 145 0 139 -130 178 -304 90 -81 -41 -111
-64 -157 -122 -43 -53 -44 -51 -29 56 5 40 18 158 29 261 10 103 20 190 23
192 2 2 40 -8 83 -22 63 -21 100 -27 175 -27 85 -1 101 2 152 27 78 38 103 75
103 150 0 55 -2 61 -39 94 -38 35 -39 35 -115 31 -123 -8 -231 -71 -329 -193
l-32 -40 6 60 c10 98 52 335 72 405 11 41 23 64 31 62 7 -1 52 -14 100 -28
143 -43 264 -31 350 33 62 47 79 134 38 194 -33 49 -61 61 -138 56 -112 -7
-235 -76 -311 -174 -22 -29 -42 -52 -44 -50 -4 4 26 86 68 182 44 103 131 256
143 251 173 -77 181 -80 261 -84 157 -8 255 53 256 161 2 88 -54 137 -156 137
-97 0 -214 -48 -288 -119 -74 -69 -38 -11 115 187 l80 102 49 0 c181 0 331 69
379 175 63 137 -59 252 -193 184 -54 -28 -130 -99 -168 -159 -17 -27 -42 -83
-55 -125 -18 -60 -36 -91 -83 -148 -32 -40 -91 -116 -131 -171 -39 -54 -71
-95 -71 -91 0 4 7 35 16 69 32 120 5 286 -60 371 -47 61 -135 70 -195 19 -58
-49 -66 -143 -19 -245 29 -64 69 -107 173 -185 l74 -56 -40 -64 c-47 -77 -129
-241 -154 -307 -10 -26 -21 -49 -24 -51 -3 -2 -7 30 -9 71 -4 107 -50 220
-121 296 -58 64 -137 76 -191 31 -60 -51 -73 -103 -44 -187 32 -95 130 -173
284 -228 36 -12 66 -23 68 -24 1 -1 -10 -47 -24 -101 -15 -54 -37 -157 -49
-228 l-21 -128 -28 83 c-61 187 -173 282 -272 233 -58 -29 -79 -65 -79 -133 1
-115 93 -216 255 -278 96 -37 100 -39 100 -69 0 -33 -46 -400 -57 -449 -6 -29
-7 -28 -18 20 -25 111 -103 238 -165 270 -64 33 -153 7 -185 -54 -23 -45 -19
-109 10 -168 44 -88 128 -151 264 -199 29 -10 56 -24 58 -31 11 -27 -125 -463
-144 -463 -3 0 -2 24 1 53 8 65 -13 176 -49 254 -14 30 -25 64 -25 75 0 60
-89 126 -152 113 -18 -4 -48 -18 -66 -32 -65 -49 -132 -205 -132 -310 0 -33
-4 -52 -10 -48 -5 3 -10 15 -10 26 0 38 -62 243 -109 360 l-48 119 41 10 c186
47 281 114 331 232 20 49 19 74 -5 126 -15 34 -29 47 -65 63 -39 17 -51 18
-87 8 -93 -24 -198 -180 -219 -324 -6 -42 -13 -74 -15 -72 -2 1 -32 61 -68
132 -35 72 -91 182 -125 244 -34 63 -61 116 -61 117 0 1 38 14 85 28 168 53
223 88 276 180 45 79 39 153 -16 208 -57 57 -137 45 -213 -32 -78 -79 -131
-205 -132 -312 0 -27 -4 -48 -9 -48 -16 0 -211 440 -211 478 0 6 51 26 114 46
134 42 199 87 246 169 53 93 34 194 -44 231 -45 21 -71 20 -122 -5 -95 -45
-194 -224 -194 -349 0 -157 -59 97 -76 326 l-7 91 92 17 c50 9 116 26 146 37
64 24 148 100 170 153 50 119 -38 237 -154 206 -86 -23 -200 -162 -237 -289
-13 -42 -14 -34 -10 109 3 168 -7 128 -19 -75 l-8 -120 -23 67 c-27 81 -64
137 -133 201 -112 105 -226 115 -281 24 -36 -59 -23 -136 33 -196 67 -70 166
-111 268 -111 25 0 67 -3 92 -6 l45 -6 7 -97 c7 -108 31 -289 45 -340 5 -19 8
-36 6 -38 -2 -2 -19 21 -39 51 -86 129 -295 229 -384 182 -51 -26 -73 -62 -73
-120 0 -73 31 -116 117 -158 62 -30 75 -33 153 -31 48 1 118 10 160 21 41 11
76 19 76 18 1 0 18 -50 39 -111 20 -60 59 -159 85 -218 l49 -108 -51 45 c-73
67 -167 110 -248 114 -60 4 -69 2 -98 -23 -62 -52 -63 -152 -2 -213 75 -75
197 -98 349 -67 47 9 91 19 98 22 9 3 49 -69 123 -221 60 -124 110 -229 110
-232 0 -4 -21 13 -47 37 -61 57 -106 84 -179 109 -74 26 -113 25 -155 -3 -82
-54 -88 -149 -15 -222 77 -77 186 -98 341 -66 55 11 103 17 106 13 23 -24 147
-457 135 -469 -2 -3 -19 23 -37 57 -57 107 -209 220 -296 220 -67 0 -116 -37
-133 -100 -22 -80 35 -167 142 -216 61 -28 68 -29 200 -28 151 2 139 7 153
-66 4 -19 9 -43 11 -52 5 -17 -12 -18 -266 -18 l-271 0 3 -488 3 -487 31 -88
c17 -48 28 -90 25 -92 -2 -3 -1054 -5 -2337 -5 l-2334 0 -52 40 c-84 64 -163
84 -340 84 -81 0 -144 3 -140 7 4 4 70 33 147 64 171 71 400 184 477 237 93
63 199 204 253 336 83 204 68 494 -35 709 -57 117 -129 192 -238 246 l-85 42
-151 -1 c-83 -1 -263 -2 -400 -3 -136 0 -471 -5 -744 -11 -272 -5 -497 -8
-499 -6 -3 2 -38 152 -79 334 l-75 329 100 279 c146 411 394 1157 441 1329 83
303 202 1085 225 1475 7 119 -6 222 -33 260 -45 63 -284 144 -546 185 -77 12
-121 24 -145 41 -53 34 -170 70 -304 92 -65 11 -121 22 -123 25 -3 3 0 32 7
66 19 96 8 226 -24 288 -52 102 -93 133 -219 168 -72 20 -102 44 -133 106 -30
59 -31 98 -5 174 28 82 26 130 -10 202 -55 110 -184 202 -308 220 l-53 8 -33
76 c-18 42 -53 104 -76 139 -24 35 -58 90 -77 123 l-34 61 19 26 c52 70 66
113 70 215 5 116 -16 223 -69 345 -17 41 -34 90 -36 108 -6 35 -18 40 -42 18
-9 -8 -60 -30 -113 -49 l-97 -35 -36 59 c-42 69 -136 165 -200 205 -25 16 -45
31 -45 34 0 3 27 39 60 80 160 199 182 357 70 499 -63 79 -292 223 -464 291
-172 68 -362 88 -511 55z m617 -889 c182 -46 313 -130 410 -259 32 -43 58 -82
58 -86 0 -4 -21 -16 -47 -27 -43 -18 -53 -18 -98 -6 -124 33 -340 -25 -321
-86 10 -31 37 -35 88 -12 41 18 180 41 168 27 -3 -3 -40 -28 -82 -56 -42 -29
-101 -78 -130 -110 -47 -51 -59 -59 -101 -64 -62 -9 -119 -39 -171 -90 -24
-25 -67 -52 -101 -66 -97 -39 -257 -115 -324 -155 -35 -20 -66 -35 -68 -32 -9
8 34 69 79 114 24 23 69 55 99 71 47 24 54 32 54 57 0 38 -30 43 -91 14 -101
-50 -196 -158 -239 -274 -21 -55 -40 -85 -96 -143 -38 -41 -77 -90 -87 -111
-9 -20 -36 -57 -58 -82 -23 -25 -67 -74 -99 -110 -31 -36 -60 -66 -65 -68 -4
-2 -1 23 6 55 8 32 14 78 14 103 0 45 -30 193 -48 241 -9 24 -6 31 35 70 62
60 161 189 217 280 146 242 174 446 88 643 -12 27 -22 50 -22 52 0 6 94 45
170 68 75 24 253 61 335 70 22 2 105 3 185 1 113 -3 166 -9 242 -29z m758
-388 c55 -141 73 -230 68 -332 -3 -73 -9 -100 -28 -135 -43 -78 -35 -91 -164
241 l-66 166 73 71 c39 39 75 71 79 71 3 0 21 -37 38 -82z m-170 17 c-32 -33
-50 -37 -50 -10 0 10 56 42 79 44 3 1 -10 -15 -29 -34z m-60 -98 c21 -45 66
-152 98 -237 33 -85 69 -176 81 -203 l20 -47 -42 -31 c-84 -62 -122 -74 -237
-74 -119 0 -177 20 -239 78 -60 58 -171 240 -171 282 0 36 134 153 248 216
l44 24 49 -27 c52 -29 74 -28 85 4 4 13 -2 28 -17 44 -12 13 -21 25 -18 27 4
3 52 25 57 26 2 1 21 -36 42 -82z m-522 -275 l10 -28 -48 0 c-56 1 -92 -20
-129 -78 l-25 -37 -17 33 c-17 33 -17 33 9 61 34 36 118 77 158 77 26 0 34 -5
42 -28z m12 -78 c17 -4 39 -28 70 -76 96 -151 197 -208 366 -208 95 0 164 21
243 74 l49 33 58 -91 c206 -323 248 -547 173 -919 -50 -249 -149 -417 -320
-547 -94 -71 -200 -123 -289 -144 -133 -32 -379 -11 -575 47 -50 15 -129 53
-210 99 l-130 75 -108 134 c-115 144 -330 440 -420 580 -51 79 -106 139 -128
139 -5 0 -9 4 -9 8 0 11 210 247 220 247 4 0 30 -34 58 -75 61 -92 166 -194
225 -220 25 -11 78 -25 119 -30 217 -30 414 73 504 265 46 98 28 274 -44 436
-28 61 -29 67 -15 95 32 62 79 98 118 88 11 -2 31 -7 45 -10z m-223 -120 c63
-118 94 -215 100 -315 7 -104 -4 -142 -63 -225 -49 -70 -91 -104 -172 -142
-52 -25 -68 -27 -177 -27 -105 0 -127 3 -172 24 -66 29 -174 141 -233 239 -47
81 -47 83 23 159 39 42 40 43 54 23 16 -23 46 -26 61 -7 5 6 13 33 16 59 7 44
11 49 70 86 118 75 415 215 441 209 6 -2 29 -39 52 -83z m-1093 -688 c27 -11
35 -21 41 -52 16 -88 81 -267 140 -389 102 -208 245 -409 245 -344 0 7 -33 65
-74 128 -94 146 -145 242 -191 356 -38 96 -87 257 -79 264 10 10 60 -50 121
-144 113 -173 403 -565 490 -662 24 -26 88 -70 172 -118 249 -142 410 -262
462 -343 28 -44 29 -51 29 -161 0 -245 -37 -774 -115 -1631 -59 -650 -85 -842
-141 -1039 l-15 -54 -152 7 c-170 7 -300 30 -435 75 -161 54 -320 146 -434
252 l-48 44 32 75 c106 253 321 756 520 1215 344 791 339 780 351 865 8 61 7
82 -4 105 -10 20 -73 65 -224 159 -242 151 -308 196 -396 266 -95 75 -217 198
-244 244 -23 41 -89 278 -83 298 2 6 12 -25 22 -68 10 -44 28 -97 39 -119 26
-53 126 -175 143 -175 29 0 21 22 -32 87 -31 37 -65 85 -76 107 -16 31 -110
429 -107 454 0 4 18 -47 40 -112 41 -126 106 -258 195 -393 47 -74 84 -105 84
-72 0 6 -34 66 -75 133 -121 198 -167 315 -240 613 -35 144 -31 158 39 129z
m-107 -218 c-3 -8 -6 -5 -6 6 -1 11 2 17 5 13 3 -3 4 -12 1 -19z m43 -182 c30
-149 34 -173 26 -165 -7 6 -66 297 -65 317 1 28 7 4 39 -152z m2222 -433 c62
-71 156 -378 237 -778 63 -311 85 -505 58 -505 -20 0 -120 67 -216 144 -135
109 -161 126 -196 126 -41 0 -109 -36 -207 -110 -43 -33 -78 -56 -78 -52 0 4
9 36 21 72 48 155 192 781 214 933 6 41 17 57 74 117 36 38 69 69 72 70 3 0
13 -8 21 -17z m378 -113 c375 -35 799 -104 829 -136 3 -3 -38 -3 -91 1 -122 9
-178 1 -178 -26 0 -18 8 -19 118 -19 265 0 649 -69 825 -147 79 -36 103 -66
111 -145 23 -208 -117 -1221 -220 -1603 -99 -365 -692 -2074 -737 -2122 -11
-12 -35 -27 -53 -33 -29 -10 -40 -7 -96 22 l-63 33 -933 5 -933 5 -3 110 c-4
114 -29 239 -65 320 -11 25 -17 47 -13 49 4 2 264 54 577 115 314 61 654 127
757 147 l187 36 -1 31 c-1 23 8 38 40 66 l40 36 62 290 c88 413 266 1218 301
1360 39 155 82 263 184 461 57 112 80 166 74 175 -15 22 -51 -30 -128 -186
-144 -288 -156 -334 -436 -1635 l-96 -445 -39 -35 c-22 -19 -40 -46 -42 -60
-3 -24 -9 -26 -207 -64 -231 -44 -201 -46 -426 24 -252 79 -496 184 -614 264
-57 39 -81 45 -81 21 0 -22 68 -68 209 -139 136 -69 249 -113 448 -177 70 -22
135 -43 143 -46 8 -3 -25 -14 -75 -23 -88 -18 -92 -18 -170 2 -43 11 -158 45
-255 77 -97 32 -181 56 -188 53 -49 -16 51 -61 296 -132 61 -18 110 -35 107
-38 -7 -7 -695 -139 -695 -134 0 3 23 75 51 161 103 316 146 524 179 846 28
287 86 926 110 1234 12 146 23 269 26 273 10 16 44 -3 92 -51 88 -88 173 -91
233 -8 55 76 269 233 332 244 29 4 45 -6 161 -98 196 -155 268 -193 304 -157
17 17 15 105 -8 253 -50 324 -157 772 -225 948 -9 22 3 22 275 -3z m-580 -46
c0 -18 -108 -508 -150 -679 -84 -341 -134 -466 -194 -481 -29 -7 -91 23 -127
63 -15 15 -45 55 -68 87 l-41 60 5 90 c4 50 8 114 10 141 2 28 4 120 5 205 l1
155 225 144 c123 79 222 146 220 149 -3 3 18 19 47 37 53 34 67 40 67 29z
m-1320 -415 l50 -31 0 -146 c-1 -109 5 -178 21 -267 33 -183 33 -174 3 -240
-33 -75 -210 -483 -401 -925 -163 -379 -381 -899 -409 -978 -10 -28 -21 -52
-24 -52 -7 0 -116 385 -265 931 -154 563 -181 652 -215 706 -113 178 0 392
315 596 116 74 359 205 555 299 102 49 208 100 235 113 65 31 75 31 135 -6z
m170 -104 c39 -25 74 -53 77 -61 3 -9 1 -47 -4 -84 -12 -79 -102 -299 -113
-279 -18 32 -40 213 -41 329 -1 140 -1 140 6 140 3 0 37 -20 75 -45z m-620
-2492 c194 -130 460 -209 747 -222 l141 -6 -43 -135 c-23 -74 -51 -157 -61
-185 l-19 -49 -310 -63 c-171 -34 -324 -62 -341 -63 -41 0 -142 65 -211 137
-66 69 -135 203 -158 308 -26 115 -17 208 29 327 l38 97 72 -58 c39 -32 91
-72 116 -88z m819 -684 c48 -110 83 -322 66 -398 l-7 -32 -593 3 -593 3 -67
-143 c-101 -212 -118 -236 -270 -367 -151 -130 -149 -126 -124 -247 15 -70 32
-95 79 -114 35 -14 40 -20 40 -48 0 -43 -44 -105 -76 -106 -12 0 -113 76 -126
95 -12 16 -47 177 -55 244 -5 50 -9 61 -22 59 -22 -5 -18 -102 10 -219 22 -95
42 -128 103 -170 20 -13 36 -27 36 -30 0 -4 -21 -12 -47 -19 l-46 -14 -34 40
c-39 46 -44 61 -83 269 -30 159 -41 188 -60 169 -7 -7 0 -62 20 -170 37 -196
37 -221 0 -122 -39 103 -62 217 -51 254 16 54 195 401 357 690 56 100 80 134
101 142 70 28 295 75 583 122 172 28 628 114 765 144 33 7 63 14 66 15 4 0 16
-22 28 -50z m2465 -349 c36 -161 64 -295 62 -297 -1 -2 -63 -48 -137 -104
l-134 -100 -6 70 c-8 78 -45 170 -87 214 -22 23 -24 29 -12 37 8 5 20 10 26
10 33 0 72 73 133 245 36 99 68 191 73 204 5 13 10 22 13 20 2 -3 33 -137 69
-299z m-3433 -123 c6 -2 -71 -191 -83 -202 -4 -5 -90 9 -125 20 -8 3 -6 17 9
47 11 23 29 63 40 88 11 24 24 47 29 51 8 5 110 2 130 -4z m226 -3 c47 -6 52
-9 55 -33 3 -23 8 -26 46 -29 l42 -3 0 -214 0 -214 -46 19 c-94 41 -233 131
-333 217 l-34 29 48 117 49 117 60 0 c34 0 84 -3 113 -6z m2753 -25 c69 -33
134 -98 169 -169 22 -47 26 -68 26 -145 0 -79 -4 -97 -29 -148 -36 -70 -98
-130 -174 -165 l-57 -27 -1292 0 c-854 0 -1294 3 -1295 10 -2 7 247 11 727 12
402 2 872 4 1045 5 l315 3 60 28 c75 35 140 97 171 162 31 64 33 179 5 241
-37 81 -107 141 -211 180 -41 16 -131 17 -1079 18 -823 1 -1035 4 -1039 14 -3
10 254 12 1300 10 l1303 -3 55 -26z m-562 -47 c22 -13 22 -14 22 -267 l0 -254
-37 -10 c-25 -7 -369 -11 -1015 -11 l-978 0 0 275 0 275 198 3 c108 1 555 3
992 2 629 0 800 -3 818 -13z m123 -79 c114 -103 117 -258 7 -365 -27 -26 -54
-48 -59 -48 -5 0 -9 92 -9 225 0 143 4 225 10 225 5 0 28 -17 51 -37z m-3477
-345 c-10 -18 -25 -57 -33 -87 -15 -50 -19 -54 -66 -72 -66 -25 -88 -24 -122
5 -40 35 -27 51 100 116 59 30 112 61 119 67 19 21 21 7 2 -29z m11692 -44
c37 -25 89 -56 115 -70 27 -13 49 -26 49 -28 0 -2 -9 -24 -21 -50 l-20 -47
-157 3 -156 3 -11 55 c-6 30 -15 68 -19 83 -6 27 -4 29 66 62 40 18 76 34 80
34 4 1 38 -20 74 -45z m-9193 -191 c-106 -2 -280 -2 -385 0 -106 1 -20 2 192
2 212 0 298 -1 193 -2z m840 0 c-106 -2 -280 -2 -385 0 -106 1 -20 2 192 2
212 0 298 -1 193 -2z m479 -54 c72 -15 122 -42 180 -97 185 -173 139 -472 -90
-584 l-67 -33 -1388 -3 c-889 -1 -1386 1 -1382 7 3 6 407 10 1093 11 1194 1
1143 -2 1249 62 104 62 166 165 167 278 2 122 -86 250 -207 305 -104 48 -121
48 -1243 41 -605 -4 -1055 -3 -1058 2 -3 5 -3 12 1 16 12 12 2688 7 2745 -5z
m8589 -261 c-1 -148 -1 -272 -1 -277 0 -5 -23 -19 -52 -31 -42 -18 -66 -21
-128 -18 -67 3 -87 9 -171 50 -118 58 -153 68 -257 68 -112 0 -215 -24 -255
-60 -26 -23 -32 -36 -32 -70 0 -35 6 -47 33 -71 37 -33 57 -35 127 -13 28 8
82 16 122 16 66 1 79 -2 166 -45 131 -65 200 -81 312 -74 50 4 102 9 116 13
l26 6 -4 -59 c-15 -198 -118 -384 -278 -498 -130 -93 -247 -125 -460 -125
-213 0 -330 32 -460 125 -171 122 -275 320 -275 525 l0 77 39 7 c63 10 196 59
338 124 244 113 419 165 558 166 106 1 121 -6 191 -80 43 -46 56 -54 87 -54
24 0 46 9 66 26 44 37 43 94 -2 160 -70 101 -171 145 -334 145 -175 -1 -373
-55 -628 -173 -146 -67 -235 -102 -282 -113 l-33 -7 0 266 0 266 735 -2 736
-3 0 -267z m-9118 191 l37 -10 -2 -277 -3 -277 -45 -12 c-33 -8 -324 -12
-1077 -12 l-1033 -1 0 300 0 300 1043 0 c694 0 1055 -4 1080 -11z m160 -97
c47 -44 77 -118 77 -188 0 -98 -35 -165 -115 -223 l-45 -32 0 252 0 251 28
-17 c15 -10 39 -29 55 -43z m8605 -127 c82 -38 135 -92 156 -162 9 -29 -24
-63 -62 -63 -22 0 -35 10 -60 46 -47 66 -101 88 -217 86 -144 -1 -331 -56
-577 -169 -150 -68 -204 -89 -289 -113 l-69 -19 0 63 0 63 60 16 c32 9 135 50
227 91 92 41 205 88 250 105 252 93 457 113 581 56z m-161 -220 c34 -8 102
-36 152 -61 82 -43 97 -48 173 -52 78 -4 108 2 178 32 14 6 16 -3 14 -56 -3
-83 -15 -91 -144 -96 -117 -5 -180 11 -290 71 -68 37 -83 41 -161 45 -62 3
-102 0 -144 -13 -70 -20 -102 -14 -116 22 -16 43 2 68 60 88 107 35 188 41
278 20z m-8329 -265 c-2 -6 -398 -11 -1133 -12 l-1130 -3 -50 -23 c-60 -28
-109 -73 -138 -127 -29 -53 -31 -193 -4 -242 30 -57 80 -105 132 -129 l50 -24
1131 0 1131 0 11 -25 c7 -14 12 -28 12 -31 0 -2 -519 -3 -1152 -2 l-1153 3
-57 28 c-108 53 -188 179 -188 296 0 86 40 178 102 238 70 68 -28 63 1266 63
771 0 1173 -3 1170 -10z m358 -37 c-57 -112 -65 -335 -17 -476 l20 -56 -156
-3 c-95 -2 -158 1 -163 7 -4 6 -18 39 -30 75 -44 128 -36 311 20 437 l19 43
161 0 161 0 -15 -27z m-381 -42 c-36 -113 -43 -246 -20 -356 8 -38 15 -73 15
-77 0 -5 -498 -8 -1107 -8 -900 1 -1115 3 -1146 14 -96 35 -152 117 -151 221
0 97 44 164 134 204 44 20 59 21 1163 21 1086 0 1118 -1 1112 -19z m-3687
-191 c274 -45 822 -200 874 -246 63 -58 -56 -324 -182 -406 l-25 -16 45 -12
c71 -19 222 -50 250 -50 15 0 21 -3 14 -10 -14 -14 -279 -39 -500 -46 -390
-13 -760 34 -932 118 -159 78 -254 221 -254 383 -1 161 101 273 277 305 74 13
293 3 433 -20z m6172 20 c211 -34 326 -194 276 -388 -50 -198 -191 -311 -457
-367 -279 -60 -746 -69 -1124 -23 -85 10 -138 28 -85 28 27 0 178 30 248 49
l43 12 -53 48 c-63 58 -114 140 -145 230 -45 133 -32 153 122 181 170 31 262
56 500 135 153 51 247 76 310 84 50 6 101 13 115 15 54 7 188 5 250 -4z
m-4985 -290 c22 -6 57 -25 77 -41 20 -16 48 -34 61 -40 14 -6 28 -23 32 -36 5
-21 -3 -34 -42 -73 -57 -57 -89 -116 -105 -194 l-12 -56 -46 0 c-53 0 -291 34
-351 50 l-42 11 31 32 c74 77 145 238 142 322 -1 22 -1 42 -1 45 2 9 215 -7
256 -20z m3628 -13 c-9 -79 66 -255 144 -339 l25 -27 -38 -10 c-56 -15 -208
-39 -292 -47 -99 -9 -436 50 -429 75 23 73 118 306 127 309 6 2 113 21 238 42
125 21 228 39 228 39 1 1 -1 -18 -3 -42z m-608 -117 c-4 -7 -75 -10 -198 -10
l-192 2 -20 -26 -21 -26 -1129 0 -1130 0 -50 -24 c-60 -28 -127 -99 -143 -154
-40 -134 15 -271 135 -332 l48 -25 1136 -3 1136 -2 11 -25 12 -25 202 0 c112
0 196 -4 188 -9 -8 -4 -622 -5 -1365 -2 l-1350 6 -43 23 c-67 36 -129 98 -159
161 -24 48 -28 68 -28 141 0 71 4 94 26 140 44 93 133 167 226 189 56 13 2716
14 2708 1z m7 -42 c-7 -7 -12 -8 -12 -2 0 14 12 26 19 19 2 -3 -1 -11 -7 -17z
m-65 -15 c-4 -10 -16 -45 -28 -78 -33 -90 -38 -255 -11 -361 11 -43 23 -87 27
-96 7 -17 -5 -18 -153 -18 l-161 0 -19 53 c-53 140 -51 317 5 452 28 67 21 65
190 65 143 0 155 -1 150 -17z m-387 -50 c-1 -5 -7 -35 -15 -68 -19 -78 -19
-254 0 -325 8 -30 15 -56 15 -57 0 -2 -498 -3 -1106 -3 -819 0 -1117 3 -1146
12 -22 6 -59 29 -83 50 -57 50 -79 107 -73 190 5 84 45 145 120 182 l52 26
1118 0 c615 0 1118 -3 1118 -7z m450 -514 c0 -6 -4 -7 -10 -4 -5 3 -10 11 -10
16 0 6 5 7 10 4 6 -3 10 -11 10 -16z"/>
<path d="M5525 10082 c-44 -21 -125 -103 -125 -126 0 -32 21 -24 67 25 26 28
62 58 80 65 37 16 110 18 146 5 14 -5 30 -6 38 0 12 7 11 11 -4 26 -26 27
-149 30 -202 5z"/>
<path d="M5250 9787 c0 -21 95 -122 147 -156 25 -17 57 -31 70 -31 31 0 79
-25 87 -45 3 -9 6 -35 6 -57 0 -35 -6 -47 -39 -78 -21 -21 -52 -41 -67 -44
-35 -9 -56 -25 -48 -37 18 -30 124 17 165 74 23 32 29 50 29 94 0 46 -4 58
-32 88 -24 26 -46 37 -80 44 -51 9 -99 43 -166 115 -42 45 -72 59 -72 33z"/>
<path d="M5685 9209 c-40 -68 -147 -168 -217 -201 -56 -28 -187 -54 -214 -44
-19 7 -44 -3 -44 -19 0 -38 177 -22 277 26 132 63 320 290 240 289 -7 0 -25
-23 -42 -51z"/>
<path d="M4773 9606 c-23 -8 -57 -23 -76 -35 -78 -48 -179 -186 -164 -225 9
-24 32 -10 46 30 18 49 113 148 168 175 25 12 74 25 107 28 47 5 62 10 64 24
3 14 -4 17 -50 16 -29 0 -72 -6 -95 -13z"/>
<path d="M6465 4900 c-9 -14 3 -30 23 -30 63 -1 160 -84 207 -176 28 -54 55
-71 55 -34 0 33 -38 99 -88 153 -65 70 -177 119 -197 87z"/>
<path d="M6413 4844 c-4 -10 1 -20 12 -27 68 -38 124 -121 140 -209 6 -29 12
-38 27 -38 18 0 20 5 15 39 -6 45 -49 146 -75 175 -22 24 -92 76 -104 76 -5 0
-11 -7 -15 -16z"/>
<path d="M14695 3130 c-43 -48 -10 -120 55 -120 45 0 73 27 73 70 0 43 -28 70
-73 70 -24 0 -43 -7 -55 -20z m79 -26 c9 -8 16 -19 16 -24 0 -11 -29 -40 -40
-40 -11 0 -40 29 -40 40 0 11 29 40 40 40 5 0 16 -7 24 -16z"/>
<path d="M15093 3100 c-69 -28 -49 -144 25 -142 17 0 40 6 51 12 47 25 33 110
-21 129 -17 6 -31 11 -32 10 -1 0 -11 -4 -23 -9z m48 -40 c23 -13 25 -43 3
-61 -31 -26 -70 25 -44 56 15 18 16 18 41 5z"/>
<path d="M14327 3058 c-60 -46 -30 -138 45 -138 42 0 68 27 68 71 0 65 -64
103 -113 67z m76 -50 c22 -34 -36 -66 -62 -34 -9 11 -10 20 -1 36 13 25 47 24
63 -2z"/>
<path d="M14013 2950 c-46 -19 -57 -83 -20 -118 48 -45 127 -16 127 47 0 54
-57 92 -107 71z m55 -42 c30 -30 -4 -77 -41 -57 -29 17 -15 69 18 69 6 0 16
-5 23 -12z"/>
<path d="M14608 2493 c-39 -45 -27 -103 25 -124 36 -15 74 2 93 40 15 29 1 77
-26 91 -29 16 -75 12 -92 -7z m76 -34 c17 -25 12 -46 -15 -54 -22 -7 -49 10
-49 31 0 14 27 44 40 44 5 0 16 -10 24 -21z"/>
<path d="M14897 2388 c-28 -22 -36 -60 -22 -96 34 -80 160 -32 139 53 -12 48
-78 72 -117 43z m74 -44 c17 -21 0 -49 -31 -49 -31 0 -48 28 -31 49 8 9 21 16
31 16 10 0 23 -7 31 -16z"/>
<path d="M15172 2380 c-47 -44 -13 -130 52 -130 34 0 76 41 76 75 0 35 -42 75
-78 75 -15 0 -38 -9 -50 -20z m79 -36 c17 -21 0 -49 -32 -49 -24 0 -36 23 -25
51 7 19 40 18 57 -2z"/>
<path d="M9191 11513 c-24 -76 -47 -143 -52 -149 -5 -6 -68 -28 -141 -49 -73
-21 -136 -41 -140 -45 -5 -3 48 -45 115 -93 l124 -88 -5 -156 -5 -156 74 55
c41 30 98 71 126 92 l53 38 145 -51 c80 -28 145 -49 145 -48 0 2 -20 63 -45
137 -25 74 -45 141 -45 148 0 8 41 68 91 133 l90 119 -155 0 -155 0 -87 125
c-48 69 -88 125 -89 125 -1 0 -21 -62 -44 -137z"/>
<path d="M12840 11492 l-74 -68 -94 19 c-51 10 -96 16 -98 14 -3 -3 13 -41 35
-86 23 -44 41 -85 41 -91 0 -6 -23 -50 -51 -97 l-50 -86 48 7 c26 4 75 9 108
11 l60 5 65 -74 65 -75 19 101 19 101 96 44 95 44 -89 48 -90 47 -7 49 c-4 28
-11 74 -15 103 l-8 52 -75 -68z m75 -161 c6 -6 34 -23 63 -39 l53 -29 -63 -28
c-35 -15 -66 -32 -69 -38 -4 -5 -10 -32 -13 -60 -4 -28 -10 -55 -13 -60 -3 -5
-28 14 -57 41 l-51 50 -50 -8 c-92 -16 -90 -17 -50 54 l36 65 -31 60 c-16 33
-30 62 -30 64 0 3 32 -2 71 -10 l72 -15 51 51 51 51 10 -69 c6 -39 15 -75 20
-80z"/>
<path d="M17213 11470 c-58 -24 -122 -82 -149 -138 -26 -54 -31 -171 -9 -229
58 -152 240 -222 387 -150 207 101 210 400 4 504 -70 36 -162 41 -233 13z
m203 -44 c206 -96 184 -388 -34 -452 -107 -31 -220 16 -276 116 -114 202 100
434 310 336z"/>
<path d="M8572 10319 c-475 -61 -860 -419 -958 -889 -10 -47 -18 -86 -18 -87
-1 -1 -23 3 -51 8 -135 25 -283 -52 -352 -183 -25 -47 -28 -63 -28 -148 0 -80
4 -103 25 -145 33 -67 107 -138 173 -165 l55 -23 4 -53 c15 -178 232 -276 381
-172 23 17 32 18 62 8 57 -19 164 -14 231 11 44 16 75 39 122 85 34 34 82 72
106 84 55 26 131 106 159 168 31 66 30 197 -1 265 -50 110 -130 172 -264 201
-34 8 -35 26 -8 102 51 147 168 263 325 324 50 20 79 24 175 24 106 0 121 -3
193 -31 154 -61 267 -182 312 -332 6 -20 4 -23 -10 -17 -28 10 -136 -13 -188
-42 -252 -136 -219 -512 54 -611 22 -8 27 -17 33 -62 24 -177 201 -271 361
-190 48 24 62 27 89 19 48 -14 166 -11 214 6 57 20 125 69 158 112 15 19 49
47 76 60 254 129 258 478 6 603 -33 17 -85 33 -117 37 l-57 6 -12 84 c-23 158
-87 318 -184 461 -231 343 -657 535 -1066 482z m353 -53 c430 -92 753 -412
846 -840 20 -92 20 -107 -5 -87 -8 6 -31 20 -51 30 -35 17 -39 24 -56 92 -22
87 -81 214 -138 297 -127 187 -311 320 -538 388 -125 37 -336 45 -473 16 -290
-60 -541 -255 -677 -527 -40 -79 -80 -207 -89 -284 -4 -35 -12 -65 -19 -67
-18 -7 -84 38 -85 58 0 32 29 154 56 228 134 374 458 641 858 706 97 16 271
11 371 -10z m-15 -142 c264 -54 515 -246 638 -489 37 -74 82 -197 82 -225 0
-13 -12 -19 -41 -24 -48 -8 -59 -2 -59 27 0 12 -15 58 -33 102 -102 252 -311
436 -572 506 -107 29 -308 31 -410 5 -135 -35 -280 -113 -379 -206 -102 -94
-196 -249 -232 -379 -12 -42 -22 -61 -33 -61 -9 0 -31 -9 -50 -21 -18 -11 -35
-18 -37 -16 -11 11 44 187 86 272 147 301 421 490 770 529 55 6 188 -4 270
-20z m-6 -139 c136 -36 257 -102 362 -198 97 -88 201 -267 228 -393 6 -27 2
-34 -33 -62 l-40 -33 -7 28 c-43 203 -149 365 -302 467 -224 148 -498 162
-737 38 -97 -51 -238 -192 -287 -287 -20 -38 -44 -93 -53 -121 l-16 -51 -42
11 c-23 5 -43 11 -45 12 -1 1 9 34 24 75 99 275 348 484 633 529 75 12 242 4
315 -15z m-74 -119 c41 -8 100 -24 130 -36 143 -57 283 -186 350 -324 36 -72
75 -194 66 -203 -1 -2 -26 7 -54 19 -42 19 -54 30 -63 58 -26 78 -85 175 -145
234 -107 108 -248 166 -404 166 -164 0 -296 -57 -409 -175 -75 -79 -135 -186
-147 -263 -4 -23 -10 -45 -14 -47 -4 -3 -24 11 -45 30 l-37 36 17 51 c89 274
343 461 635 466 25 1 79 -5 120 -12z m-840 -526 c78 -21 149 -112 150 -189 0
-28 -3 -32 -17 -26 -64 27 -96 34 -154 35 -77 0 -138 -16 -196 -53 l-41 -26
-6 37 c-13 79 35 166 115 206 56 28 93 32 149 16z m1721 -17 c62 -32 104 -91
115 -162 7 -41 6 -44 -12 -36 -66 27 -97 34 -160 35 -77 0 -138 -17 -195 -55
-20 -13 -40 -21 -43 -18 -13 13 -5 100 13 139 10 22 36 55 57 72 70 58 143 66
225 25z m-2152 -14 c27 -5 69 -23 93 -38 l43 -27 -1 -100 c-1 -92 -3 -103 -32
-154 -18 -30 -32 -60 -32 -67 0 -6 -22 -19 -49 -28 -55 -18 -136 -95 -147
-139 -3 -14 -10 -26 -15 -26 -27 0 -112 55 -147 95 -146 166 -60 433 155 484
53 13 75 13 132 0z m1738 -19 c26 -11 57 -30 69 -41 19 -18 20 -24 11 -64 -7
-31 -7 -59 1 -92 9 -40 8 -51 -4 -65 -9 -9 -27 -39 -42 -68 -22 -42 -35 -54
-66 -65 -54 -19 -106 -64 -133 -115 -13 -24 -25 -46 -28 -48 -9 -10 -96 42
-133 79 -115 114 -116 296 -4 412 89 93 214 118 329 67z m-990 -76 c57 -27
101 -72 135 -137 18 -34 23 -58 23 -127 0 -76 -3 -91 -30 -139 -26 -48 -120
-139 -132 -128 -2 2 2 28 8 57 23 106 -12 227 -89 312 -32 36 -40 52 -45 98
-4 30 -9 66 -13 79 -7 23 -6 24 42 17 27 -4 72 -18 101 -32z m1683 1 c101 -52
164 -153 164 -265 0 -79 -28 -147 -82 -203 -35 -37 -101 -80 -88 -58 4 6 11
36 16 66 17 106 -23 229 -99 303 -36 35 -38 41 -44 116 l-6 78 47 -7 c25 -4
67 -17 92 -30z m-1975 -96 c33 -6 73 -18 88 -26 49 -25 117 -95 145 -148 23
-43 27 -62 27 -135 -1 -99 -22 -154 -87 -221 -74 -76 -204 -113 -301 -86 l-27
7 22 43 c17 32 22 59 22 112 0 78 -20 129 -71 177 -33 31 -108 67 -140 68 -13
0 -23 2 -23 5 0 21 46 88 85 124 49 45 93 68 159 81 23 4 41 8 42 9 0 1 27 -4
59 -10z m1761 -24 c151 -67 224 -235 170 -392 -23 -70 -92 -145 -164 -180 -47
-23 -70 -28 -134 -28 -43 0 -82 5 -87 10 -7 7 -4 25 11 54 33 67 29 154 -9
223 -34 62 -102 113 -163 123 -22 4 -40 12 -40 19 0 22 57 103 91 129 106 79
212 93 325 42z m-2043 -234 c14 -5 42 -25 62 -43 146 -128 60 -358 -134 -358
-116 0 -201 86 -201 205 0 88 49 161 130 194 32 13 112 14 143 2z m1703 -10
c55 -25 101 -83 115 -147 16 -70 -7 -139 -62 -189 -49 -44 -76 -55 -139 -55
-62 0 -97 13 -139 53 -111 105 -85 267 54 340 41 22 121 21 171 -2z"/>
<path d="M13714 6551 c-93 -57 -134 -265 -83 -431 l21 -70 46 33 c83 58 163
140 189 191 34 68 43 168 18 219 -33 71 -125 98 -191 58z"/>
<path d="M13652 6020 c0 -14 2 -19 5 -12 2 6 2 18 0 25 -3 6 -5 1 -5 -13z"/>
<path d="M17519 2104 c-5 -6 -6 -14 -2 -17 3 -4 154 -7 334 -7 299 0 362 5
330 25 -19 11 -652 11 -662 -1z"/>
</g>
</svg>
